G04 DipTrace 4.3.0.4*
G04 TopAssembly.gbr*
%MOIN*%
G04 #@! TF.FileFunction,Drawing,Top*
G04 #@! TF.Part,Single*
%ADD13C,0.004724*%
%ADD16C,0.01*%
%ADD20C,0.03937*%
%ADD21C,0.019685*%
%ADD22C,0.008*%
%ADD32C,0.024003*%
%FSLAX26Y26*%
G04*
G70*
G90*
G75*
G01*
G04 TopAssy*
%LPD*%
X391270Y1711929D2*
D22*
X273150D1*
Y1357619D2*
X391270D1*
X273150D2*
Y1711929D1*
X5128989Y2911960D2*
D13*
X4654093Y2911948D1*
X4654102Y2557596D1*
X5128998Y2557608D1*
X5128989Y2911960D1*
X4654091Y2966793D2*
X4305124Y2966784D1*
X4305136Y2502741D1*
X4654103Y2502750D1*
X4654091Y2966793D1*
X4654092Y2949748D2*
X4305124Y2949739D1*
X4654103Y2519796D2*
X4305135Y2519787D1*
X5128993Y1011942D2*
X4654097D1*
Y657591D1*
X5128993D1*
Y1011942D1*
X4654097Y1066787D2*
X4305130D1*
Y602744D1*
X4654097D1*
Y1066787D1*
Y1049743D2*
X4305130D1*
X4654097Y619790D2*
X4305130D1*
X2662520Y2502215D2*
D32*
Y2462139D1*
Y2102102D2*
Y2142178D1*
G36*
X3552517Y1924764D2*
X3572517D1*
Y1944764D1*
X3552517D1*
Y1924764D1*
G37*
G36*
X3552519Y1824764D2*
X3572519D1*
Y1844764D1*
X3552519D1*
Y1824764D1*
G37*
G36*
X3552521Y1724764D2*
X3572521D1*
X3572520Y1744764D1*
X3552520D1*
X3552521Y1724764D1*
G37*
G36*
X3552523Y1624764D2*
X3572523D1*
X3572522Y1644764D1*
X3552522D1*
X3552523Y1624764D1*
G37*
X1912583Y1684764D2*
D32*
X1872478D1*
X1512457D2*
X1552562D1*
X2312583Y2984764D2*
X2272478D1*
X1912457D2*
X1952562D1*
X1562583Y2934764D2*
X1522478D1*
X1162457D2*
X1202562D1*
X1962583Y684764D2*
X1922478D1*
X1562457D2*
X1602562D1*
X2762457Y1784764D2*
X2802562D1*
X3162583D2*
X3122478D1*
X2412457Y2984759D2*
X2452562Y2984760D1*
X2812583Y2984768D2*
X2772478Y2984767D1*
X2312583Y2834764D2*
X2272478D1*
X1912457D2*
X1952562D1*
X3662583Y2484770D2*
X3622478Y2484768D1*
X3262457Y2484758D2*
X3302562Y2484759D1*
X3662583Y2684770D2*
X3622478Y2684768D1*
X3262457Y2684758D2*
X3302562Y2684759D1*
X3962520Y1384701D2*
Y1424806D1*
Y1784827D2*
Y1744722D1*
X433780Y1902088D2*
D13*
X394409Y1941457D1*
Y2767441D1*
X2530630D1*
Y1902087D1*
X433780Y1902088D1*
X3142441Y2136339D2*
X3103071Y2096969D1*
X2882598D1*
Y2872559D1*
X3142441D1*
Y2136339D1*
X390126Y1254339D2*
Y995475D1*
X395328Y3090832D2*
D16*
X4332336D1*
Y492407D1*
X395328D1*
Y3090832D1*
X4331024Y2306417D2*
D20*
Y1263110D1*
D21*
X394016Y1784764D3*
M02*
