G04 DipTrace 4.3.0.4*
G04 GPSDO front v1.01.GTL*
%MOIN*%
G04 #@! TF.FileFunction,Copper,L1,Top*
G04 #@! TF.Part,Single*
G04 #@! TA.AperFunction,CopperBalancing*
%ADD16C,0.025*%
G04 #@! TA.AperFunction,ComponentPad*
%ADD18C,0.177165*%
%ADD19C,0.511811*%
%FSLAX26Y26*%
G04*
G70*
G90*
G75*
G01*
G04 Top*
%LPD*%
X409382Y1734600D2*
D16*
X3370789D1*
X409041Y1709731D2*
X3371130D1*
X409041Y1684862D2*
X490270D1*
X612751D2*
X3167419D1*
X3289899D2*
X3371130D1*
X409041Y1659993D2*
X469421D1*
X633601D2*
X3146570D1*
X3310749D2*
X3371130D1*
X409041Y1635125D2*
X459655D1*
X643318D2*
X3136853D1*
X3320466D2*
X3371130D1*
X409041Y1610256D2*
X457409D1*
X645563D2*
X3134606D1*
X3322761D2*
X3371130D1*
X409041Y1585387D2*
X462049D1*
X640925D2*
X3139245D1*
X3318073D2*
X3371130D1*
X409041Y1560518D2*
X474890D1*
X628083D2*
X3152038D1*
X3305281D2*
X3371130D1*
X409041Y1535650D2*
X502234D1*
X600789D2*
X3179382D1*
X3277937D2*
X3371130D1*
X409041Y1510781D2*
X3371130D1*
X409041Y1485912D2*
X3371130D1*
X409041Y1461043D2*
X3371130D1*
X409041Y1436175D2*
X3371130D1*
X409041Y1411306D2*
X3371130D1*
X428718Y1386437D2*
X3351453D1*
X428718Y1361568D2*
X3351453D1*
X428718Y1336699D2*
X3351453D1*
X428718Y1311831D2*
X3351453D1*
X428718Y1286962D2*
X3351453D1*
X428718Y1262093D2*
X3351453D1*
X428718Y1237224D2*
X3351453D1*
X428718Y1212356D2*
X3351453D1*
X428718Y1187487D2*
X3351453D1*
X428718Y1162618D2*
X3351453D1*
X428718Y1137749D2*
X3351453D1*
X428718Y1112881D2*
X3351453D1*
X428718Y1088012D2*
X3351453D1*
X428718Y1063143D2*
X3351453D1*
X428718Y1038274D2*
X3351453D1*
X428718Y1013406D2*
X3351453D1*
X428718Y988537D2*
X3351453D1*
X428718Y963668D2*
X3351453D1*
X428718Y938799D2*
X3351453D1*
X428718Y913930D2*
X3351453D1*
X428718Y889062D2*
X3351453D1*
X428718Y864193D2*
X3351453D1*
X428718Y839324D2*
X3351453D1*
X428718Y814455D2*
X3351453D1*
X428718Y789587D2*
X3351453D1*
X409016Y764718D2*
X3371130D1*
X409016Y739849D2*
X3371130D1*
X409016Y714980D2*
X3371130D1*
X409016Y690112D2*
X3371130D1*
X409016Y665243D2*
X3371130D1*
X409016Y640374D2*
X526550D1*
X576472D2*
X3203698D1*
X3253621D2*
X3371130D1*
X409016Y615505D2*
X483386D1*
X619636D2*
X3160534D1*
X3296785D2*
X3371130D1*
X409016Y590636D2*
X466101D1*
X636873D2*
X3143249D1*
X3314070D2*
X3371130D1*
X409016Y565768D2*
X458434D1*
X644538D2*
X3135583D1*
X3321735D2*
X3371130D1*
X409016Y540899D2*
X457946D1*
X645075D2*
X3135094D1*
X3322224D2*
X3371130D1*
X409016Y516030D2*
X464441D1*
X638533D2*
X3141638D1*
X3315681D2*
X3371130D1*
X409016Y491161D2*
X479969D1*
X623005D2*
X3157165D1*
X3300202D2*
X3371130D1*
X409016Y466293D2*
X515173D1*
X587801D2*
X3192322D1*
X3264997D2*
X3371130D1*
X409016Y441424D2*
X3371130D1*
X415339Y416555D2*
X3364782D1*
X3320052Y1607295D2*
X3317802Y1593088D1*
X3313357Y1579407D1*
X3306825Y1566589D1*
X3298370Y1554951D1*
X3288198Y1544780D1*
X3276560Y1536324D1*
X3263743Y1529793D1*
X3250062Y1525348D1*
X3235854Y1523097D1*
X3221469D1*
X3207261Y1525348D1*
X3193580Y1529793D1*
X3180762Y1536324D1*
X3169125Y1544780D1*
X3158953Y1554951D1*
X3150497Y1566589D1*
X3143966Y1579407D1*
X3139521Y1593088D1*
X3137270Y1607295D1*
Y1621681D1*
X3139521Y1635888D1*
X3143966Y1649570D1*
X3150497Y1662387D1*
X3158953Y1674025D1*
X3169125Y1684197D1*
X3180762Y1692652D1*
X3193580Y1699184D1*
X3207261Y1703629D1*
X3221469Y1705879D1*
X3235854D1*
X3250062Y1703629D1*
X3263743Y1699184D1*
X3276560Y1692652D1*
X3288198Y1684197D1*
X3298370Y1674025D1*
X3306825Y1662387D1*
X3313357Y1649570D1*
X3317802Y1635888D1*
X3320052Y1621681D1*
Y1607295D1*
X642887D2*
X640636Y1593088D1*
X636192Y1579407D1*
X629660Y1566589D1*
X621205Y1554951D1*
X611033Y1544780D1*
X599395Y1536324D1*
X586577Y1529793D1*
X572896Y1525348D1*
X558689Y1523097D1*
X544303D1*
X530096Y1525348D1*
X516415Y1529793D1*
X503597Y1536324D1*
X491959Y1544780D1*
X481787Y1554951D1*
X473332Y1566589D1*
X466801Y1579407D1*
X462356Y1593088D1*
X460105Y1607295D1*
Y1621681D1*
X462356Y1635888D1*
X466801Y1649570D1*
X473332Y1662387D1*
X481787Y1674025D1*
X491959Y1684197D1*
X503597Y1692652D1*
X516415Y1699184D1*
X530096Y1703629D1*
X544303Y1705879D1*
X558689D1*
X572896Y1703629D1*
X586577Y1699184D1*
X599395Y1692652D1*
X611033Y1684197D1*
X621205Y1674025D1*
X629660Y1662387D1*
X636192Y1649570D1*
X640636Y1635888D1*
X642887Y1621681D1*
Y1607295D1*
Y544303D2*
X640636Y530096D1*
X636192Y516415D1*
X629660Y503597D1*
X621205Y491959D1*
X611033Y481787D1*
X599395Y473332D1*
X586577Y466801D1*
X572896Y462356D1*
X558689Y460105D1*
X544303D1*
X530096Y462356D1*
X516415Y466801D1*
X503597Y473332D1*
X491959Y481787D1*
X481787Y491959D1*
X473332Y503597D1*
X466801Y516415D1*
X462356Y530096D1*
X460105Y544303D1*
Y558689D1*
X462356Y572896D1*
X466801Y586577D1*
X473332Y599395D1*
X481787Y611033D1*
X491959Y621205D1*
X503597Y629660D1*
X516415Y636192D1*
X530096Y640636D1*
X544303Y642887D1*
X558689D1*
X572896Y640636D1*
X586577Y636192D1*
X599395Y629660D1*
X611033Y621205D1*
X621205Y611033D1*
X629660Y599395D1*
X636192Y586577D1*
X640636Y572896D1*
X642887Y558689D1*
Y544303D1*
X3320052D2*
X3317802Y530096D1*
X3313357Y516415D1*
X3306825Y503597D1*
X3298370Y491959D1*
X3288198Y481787D1*
X3276560Y473332D1*
X3263743Y466801D1*
X3250062Y462356D1*
X3235854Y460105D1*
X3221469D1*
X3207261Y462356D1*
X3193580Y466801D1*
X3180762Y473332D1*
X3169125Y481787D1*
X3158953Y491959D1*
X3150497Y503597D1*
X3143966Y516415D1*
X3139521Y530096D1*
X3137270Y544303D1*
Y558689D1*
X3139521Y572896D1*
X3143966Y586577D1*
X3150497Y599395D1*
X3158953Y611033D1*
X3169125Y621205D1*
X3180762Y629660D1*
X3193580Y636192D1*
X3207261Y640636D1*
X3221469Y642887D1*
X3235854D1*
X3250062Y640636D1*
X3263743Y636192D1*
X3276560Y629660D1*
X3288198Y621205D1*
X3298370Y611033D1*
X3306825Y599395D1*
X3313357Y586577D1*
X3317802Y572896D1*
X3320052Y558689D1*
Y544303D1*
X434118Y406516D2*
X3346055D1*
X3353751Y407542D1*
X3360202Y410230D1*
X3365736Y414495D1*
X3369982Y420047D1*
X3372643Y426508D1*
X3373657Y434314D1*
X3373642Y775217D1*
X3363538Y775562D1*
X3359925Y777059D1*
X3356951Y779598D1*
X3354908Y782933D1*
X3353995Y786736D1*
Y1379248D1*
X3354908Y1383051D1*
X3356951Y1386386D1*
X3359925Y1388925D1*
X3363538Y1390423D1*
X3366457Y1390768D1*
X3373642D1*
Y1731871D1*
X3372615Y1739577D1*
X3369928Y1746029D1*
X3365663Y1751563D1*
X3360112Y1755807D1*
X3353650Y1758467D1*
X3345845Y1759482D1*
X434104Y1759469D1*
X426406Y1758442D1*
X419955Y1755755D1*
X414421Y1751490D1*
X410177Y1745937D1*
X407517Y1739476D1*
X406503Y1731669D1*
X406516Y1390768D1*
X416619Y1390423D1*
X420232Y1388925D1*
X423206Y1386386D1*
X425249Y1383051D1*
X426163Y1379248D1*
Y786736D1*
X425249Y782933D1*
X423206Y779598D1*
X420232Y777059D1*
X416619Y775562D1*
X413701Y775217D1*
X406516D1*
Y434113D1*
X407543Y426407D1*
X410231Y419955D1*
X414496Y414417D1*
X420047Y410177D1*
X426509Y407514D1*
X434314Y406501D1*
D18*
X3228661Y1614488D3*
X551496D3*
Y551496D3*
X3228661D3*
D19*
X940079Y1043622D3*
X2840079D3*
M02*
