G04 DipTrace 4.3.0.4*
G04 GPSDO_simple.GBO*
%MOIN*%
G04 #@! TF.FileFunction,Legend,Bot*
G04 #@! TF.Part,Single*
%ADD97C,0.006176*%
%FSLAX26Y26*%
G04*
G70*
G90*
G75*
G01*
G04 BotSilk*
%LPD*%
G36*
X2668331Y1442768D2*
Y1407379D1*
X2667223Y1406274D1*
Y1404062D1*
X2666114Y1402956D1*
X2662789Y1401850D1*
X2661681Y1399638D1*
Y1398532D1*
X2659095Y1397427D1*
X2656509D1*
X2653922Y1398532D1*
X2652814Y1399638D1*
Y1410697D1*
X2649489D1*
X2635081Y1396321D1*
X2633972Y1394109D1*
X2630647Y1391897D1*
X2629539Y1389685D1*
X2626214Y1387474D1*
X2625105Y1385262D1*
X2621780Y1383050D1*
X2607372Y1368674D1*
Y1367568D1*
X2605155Y1365356D1*
X2602939Y1364250D1*
Y1362038D1*
X2601830Y1360932D1*
X2598505Y1359827D1*
Y1357615D1*
X2597397Y1356509D1*
X2594072Y1355403D1*
X2579663Y1341027D1*
Y1338815D1*
X2578555Y1337709D1*
X2575230Y1336603D1*
Y1333285D1*
X2570797Y1332179D1*
Y1328862D1*
X2573013D1*
X2574122Y1329968D1*
Y1332179D1*
X2578555Y1333285D1*
X2578770Y1334069D1*
X2579663Y1335497D1*
X2586313Y1338815D1*
Y1339921D1*
X2588530Y1342132D1*
X2591855Y1343238D1*
X2592071Y1344022D1*
X2592963Y1345450D1*
X2596288Y1346556D1*
X2604047Y1352085D1*
X2606264Y1354297D1*
X2610697Y1356509D1*
X2611805Y1358721D1*
X2616239Y1360932D1*
Y1362038D1*
X2618455Y1364250D1*
X2620672Y1365356D1*
X2623997Y1366462D1*
X2625105Y1368674D1*
X2629539Y1370885D1*
Y1373097D1*
X2631386Y1374203D1*
X2633233D1*
X2635081Y1373097D1*
Y1353191D1*
X2636189Y1350979D1*
X2638406D1*
X2643947Y1356509D1*
Y1357615D1*
X2646164Y1359827D1*
X2648381Y1360932D1*
X2648596Y1361716D1*
X2649489Y1363144D1*
X2651706Y1364250D1*
X2653922Y1366462D1*
X2654138Y1367246D1*
X2655031Y1368674D1*
X2657247Y1369779D1*
Y1370885D1*
X2659464Y1373097D1*
X2661681Y1374203D1*
X2663898Y1377521D1*
X2664725Y1378231D1*
X2665300Y1378166D1*
X2666114Y1377521D1*
X2667223Y1374203D1*
X2668331Y1373097D1*
Y1260297D1*
X2667223Y1259191D1*
Y1255874D1*
X2665745Y1254768D1*
X2664267D1*
X2662789Y1255874D1*
Y1256979D1*
X2661681Y1259191D1*
X2658356Y1261403D1*
X2657041Y1262646D1*
X2657247Y1263615D1*
X2653922Y1265826D1*
X2652608Y1267070D1*
X2652814Y1268038D1*
X2649489Y1269144D1*
X2648381Y1270250D1*
Y1272462D1*
X2643947Y1276885D1*
X2639514Y1280203D1*
X2638406Y1281309D1*
X2636189D1*
X2635081Y1280203D1*
X2633972Y1259191D1*
X2632797Y1257990D1*
X2632223Y1258170D1*
X2631756Y1259191D1*
X2628430Y1262509D1*
X2625105Y1263615D1*
X2623791Y1264858D1*
X2623997Y1265826D1*
X2619564Y1268038D1*
X2616239Y1270250D1*
X2614924Y1271493D1*
X2615130Y1272462D1*
X2610697Y1273568D1*
Y1275779D1*
X2607372Y1276885D1*
X2605155Y1277991D1*
X2601830Y1281309D1*
X2598505Y1282415D1*
X2597397Y1283521D1*
Y1285732D1*
X2594072Y1286838D1*
X2591855Y1287944D1*
Y1290156D1*
X2588530Y1291262D1*
X2586313Y1292368D1*
X2582988Y1295685D1*
X2578555Y1296791D1*
Y1300109D1*
X2574122Y1301215D1*
Y1303426D1*
X2573013Y1304532D1*
X2571905D1*
X2570797Y1303426D1*
Y1301215D1*
X2574122Y1300109D1*
X2575230Y1299003D1*
Y1296791D1*
X2577447Y1294579D1*
X2578530Y1293419D1*
X2579444Y1292038D1*
X2579663Y1291262D1*
X2582988Y1290156D1*
X2583881Y1288728D1*
X2584097Y1287944D1*
X2585205Y1286838D1*
X2587422Y1285732D1*
X2588530Y1284626D1*
Y1282415D1*
X2592963Y1277991D1*
X2597397Y1275779D1*
X2598290Y1274352D1*
X2598505Y1273568D1*
X2600722Y1272462D1*
X2601615Y1271034D1*
X2601830Y1270250D1*
X2602939Y1268038D1*
X2606264Y1265826D1*
X2607156Y1264399D1*
X2607372Y1263615D1*
X2610697Y1262509D1*
X2611590Y1261081D1*
X2611805Y1260297D1*
X2612914Y1259191D1*
X2615130Y1258085D1*
X2616239Y1256979D1*
Y1254768D1*
X2620672Y1250344D1*
X2625105Y1247026D1*
X2628430Y1243709D1*
X2629514Y1242549D1*
X2630428Y1241168D1*
X2630647Y1240391D1*
X2633972Y1238179D1*
X2634865Y1236752D1*
X2635081Y1235968D1*
X2638406Y1234862D1*
X2639298Y1233434D1*
X2639514Y1232650D1*
X2640622Y1231544D1*
X2642839Y1230438D1*
X2643947Y1229332D1*
Y1227121D1*
X2648381Y1222697D1*
X2650597Y1221591D1*
X2651706D1*
X2652814Y1222697D1*
Y1233756D1*
X2653922Y1234862D1*
X2656139Y1235968D1*
X2658356D1*
X2660573Y1234862D1*
X2662789Y1232650D1*
Y1231544D1*
X2666114Y1230438D1*
X2667223Y1229332D1*
Y1227121D1*
X2668331Y1226015D1*
Y1185097D1*
X2667223Y1183991D1*
Y1180674D1*
X2665745Y1179568D1*
X2664267D1*
X2662789Y1180674D1*
X2661681Y1181779D1*
Y1183991D1*
X2658356Y1185097D1*
X2657247Y1186203D1*
Y1188415D1*
X2651706Y1193944D1*
X2648381Y1195050D1*
X2647066Y1196293D1*
X2647272Y1197262D1*
X2646164Y1198368D1*
X2643947Y1199474D1*
X2642839Y1200579D1*
Y1202791D1*
X2639514Y1203897D1*
X2638406Y1205003D1*
Y1207215D1*
X2635081Y1208321D1*
X2633766Y1209564D1*
X2633972Y1210532D1*
X2632864Y1211638D1*
X2630647Y1212744D1*
X2629539Y1213850D1*
Y1216062D1*
X2623997Y1221591D1*
X2620672Y1222697D1*
X2619564Y1223803D1*
Y1226015D1*
X2616239Y1227121D1*
X2615130Y1228226D1*
Y1230438D1*
X2611805Y1231544D1*
X2610697Y1232650D1*
Y1234862D1*
X2607372Y1235968D1*
X2606264Y1237074D1*
Y1239285D1*
X2602939Y1240391D1*
X2601830Y1241497D1*
Y1243709D1*
X2596288Y1249238D1*
X2592963Y1250344D1*
X2591855Y1251450D1*
Y1253662D1*
X2588530Y1254768D1*
X2587422Y1255874D1*
Y1258085D1*
X2584097Y1259191D1*
X2582988Y1260297D1*
Y1262509D1*
X2579663Y1263615D1*
X2578555Y1264721D1*
Y1266932D1*
X2575230Y1268038D1*
X2574122Y1269144D1*
Y1271356D1*
X2568580Y1276885D1*
X2565255Y1277991D1*
X2564146Y1279097D1*
Y1281309D1*
X2560821Y1282415D1*
X2559713Y1283521D1*
Y1285732D1*
X2556388Y1286838D1*
X2555280Y1287944D1*
Y1290156D1*
X2551955Y1291262D1*
X2550846Y1292368D1*
Y1294579D1*
X2547521Y1295685D1*
X2546413Y1296791D1*
Y1299003D1*
X2540871Y1304532D1*
X2537546Y1305638D1*
X2536232Y1306881D1*
X2536438Y1307850D1*
X2535329Y1308956D1*
X2533113Y1310062D1*
X2532004Y1311168D1*
Y1313379D1*
X2530896Y1314485D1*
X2528679Y1315591D1*
Y1317803D1*
X2532004Y1318909D1*
X2532559Y1320015D1*
X2533163Y1321022D1*
X2534232Y1322203D1*
X2535329Y1323332D1*
X2537546Y1325544D1*
Y1327756D1*
X2541980Y1328862D1*
Y1331074D1*
X2543088Y1332179D1*
X2546413Y1333285D1*
Y1336603D1*
X2550846Y1337709D1*
Y1341027D1*
X2554171Y1342132D1*
X2565255Y1353191D1*
Y1355403D1*
X2569688Y1356509D1*
Y1359827D1*
X2574122Y1360932D1*
Y1363144D1*
X2575230Y1364250D1*
X2578555Y1365356D1*
Y1368674D1*
X2581880Y1369779D1*
X2592963Y1380838D1*
Y1383050D1*
X2597397Y1384156D1*
Y1387474D1*
X2601830Y1388579D1*
Y1391897D1*
X2606264Y1393003D1*
Y1396321D1*
X2609589Y1397427D1*
X2620672Y1408485D1*
Y1410697D1*
X2625105Y1411803D1*
Y1415121D1*
X2629539Y1416227D1*
Y1418438D1*
X2630647Y1419544D1*
X2633972Y1420650D1*
Y1423968D1*
X2637297Y1425074D1*
X2648381Y1436132D1*
Y1438344D1*
X2652814Y1439450D1*
Y1442768D1*
X2657247Y1443874D1*
Y1446085D1*
X2658356Y1447191D1*
X2661681Y1448297D1*
Y1451615D1*
X2631756D1*
X2626214Y1446085D1*
Y1443874D1*
X2621780Y1442768D1*
Y1440556D1*
X2620672Y1439450D1*
X2617347Y1438344D1*
Y1435027D1*
X2616239Y1433921D1*
X2612914Y1432815D1*
Y1430603D1*
X2611805Y1429497D1*
X2607372Y1428391D1*
Y1425074D1*
X2604047Y1423968D1*
X2598505Y1418438D1*
Y1416227D1*
X2594072Y1415121D1*
Y1412909D1*
X2592963Y1411803D1*
X2589638Y1410697D1*
Y1407379D1*
X2588530Y1406274D1*
X2585205Y1405168D1*
Y1402956D1*
X2584097Y1401850D1*
X2579663Y1400744D1*
Y1398532D1*
X2578555Y1397427D1*
X2576338Y1396321D1*
X2566363Y1386368D1*
X2565999Y1385026D1*
X2565255Y1384156D1*
X2561930Y1383050D1*
Y1379732D1*
X2560821Y1378627D1*
X2557496Y1377521D1*
Y1375309D1*
X2556388Y1374203D1*
X2551955Y1373097D1*
Y1370885D1*
X2550846Y1369779D1*
X2548630Y1368674D1*
X2543088Y1363144D1*
Y1360932D1*
X2538654Y1359827D1*
Y1356509D1*
X2535329Y1355403D1*
X2534221Y1354297D1*
Y1352085D1*
X2533113Y1350979D1*
X2529788Y1349874D1*
Y1347662D1*
X2528679Y1346556D1*
X2525354Y1345450D1*
X2524246Y1344344D1*
X2523882Y1343002D1*
X2523138Y1342132D1*
X2519813Y1341027D1*
Y1337709D1*
X2516488Y1336603D1*
X2515379Y1335497D1*
Y1333285D1*
X2510946Y1332179D1*
Y1328862D1*
X2506512Y1327756D1*
Y1324438D1*
X2505404Y1323332D1*
X2502079Y1322227D1*
Y1320015D1*
X2500971Y1318909D1*
X2497646Y1317803D1*
Y1315591D1*
X2500971Y1314485D1*
X2502079Y1313379D1*
Y1310062D1*
X2505404Y1308956D1*
X2506512Y1307850D1*
Y1305638D1*
X2510946Y1304532D1*
Y1301215D1*
X2515379Y1300109D1*
Y1296791D1*
X2518704Y1295685D1*
X2519813Y1294579D1*
Y1292368D1*
X2523138Y1291262D1*
X2524246Y1290156D1*
Y1287944D1*
X2528679Y1286838D1*
X2529788Y1285732D1*
Y1282415D1*
X2533113Y1281309D1*
X2534221Y1280203D1*
Y1277991D1*
X2537546Y1276885D1*
X2538654Y1275779D1*
Y1273568D1*
X2543088Y1272462D1*
Y1269144D1*
X2547521Y1268038D1*
Y1265826D1*
X2548630Y1264721D1*
X2550846Y1263615D1*
X2551955Y1262509D1*
Y1260297D1*
X2556388Y1259191D1*
X2557496Y1258085D1*
Y1254768D1*
X2561930Y1253662D1*
Y1250344D1*
X2565255Y1249238D1*
X2566363Y1248132D1*
Y1245921D1*
X2570797Y1244815D1*
Y1242603D1*
X2571905Y1241497D1*
X2574122Y1240391D1*
X2575230Y1239285D1*
Y1237074D1*
X2578555Y1235968D1*
X2579663Y1234862D1*
Y1232650D1*
X2584097Y1231544D1*
X2585205Y1230438D1*
Y1228226D1*
X2586313Y1227121D1*
X2588530Y1226015D1*
X2589638Y1224909D1*
Y1222697D1*
X2592963Y1221591D1*
X2593856Y1220163D1*
X2594072Y1219379D1*
X2595180Y1218274D1*
X2598505Y1217168D1*
Y1213850D1*
X2601830Y1212744D1*
X2602939Y1211638D1*
Y1209426D1*
X2606264Y1208321D1*
X2607372Y1207215D1*
Y1205003D1*
X2611805Y1203897D1*
X2612914Y1202791D1*
Y1199474D1*
X2616239Y1198368D1*
X2617347Y1197262D1*
Y1195050D1*
X2620672Y1193944D1*
X2621780Y1192838D1*
Y1190626D1*
X2626214Y1189521D1*
Y1186203D1*
X2629539Y1185097D1*
X2630432Y1183669D1*
X2630647Y1182885D1*
X2631756Y1181779D1*
X2633972Y1180674D1*
X2635081Y1179568D1*
Y1177356D1*
X2639514Y1176250D1*
X2640622Y1175144D1*
Y1171826D1*
X2643947Y1170721D1*
X2676089D1*
X2691976Y1171826D1*
X2707862D1*
X2723748Y1170721D1*
Y1169615D1*
X2727073Y1167403D1*
X2729290Y1166297D1*
X2731507Y1164085D1*
Y1158556D1*
X2718207Y1157450D1*
X2717098Y1156344D1*
Y1155238D1*
X2718207Y1153026D1*
X2721532Y1151921D1*
X2722424Y1150493D1*
X2722640Y1149709D1*
X2723748Y1148603D1*
X2725965Y1147497D1*
X2727073Y1146391D1*
Y1144179D1*
X2731507Y1139756D1*
X2735940Y1137544D1*
X2736833Y1136116D1*
X2737048Y1135332D1*
X2739265Y1134226D1*
X2740158Y1132799D1*
X2740373Y1132015D1*
X2741482Y1129803D1*
X2744807Y1127591D1*
X2745700Y1126163D1*
X2745915Y1125379D1*
X2749240Y1124274D1*
X2750133Y1122846D1*
X2750349Y1122062D1*
X2751457Y1120956D1*
X2753674Y1119850D1*
X2754782Y1118744D1*
Y1116532D1*
X2759215Y1112109D1*
X2763649Y1109897D1*
X2764542Y1108469D1*
X2764757Y1107685D1*
X2766974Y1106579D1*
X2767867Y1105152D1*
X2768082Y1104368D1*
X2769190Y1102156D1*
X2772515Y1099944D1*
X2773408Y1098516D1*
X2773624Y1097732D1*
X2776949Y1096626D1*
X2777842Y1095199D1*
X2778057Y1094415D1*
X2779166Y1093309D1*
X2781382Y1092203D1*
X2782491Y1091097D1*
Y1088885D1*
X2786924Y1084462D1*
X2791357Y1082250D1*
X2792250Y1080822D1*
X2792466Y1080038D1*
X2795791Y1078932D1*
X2796899Y1077826D1*
Y1075615D1*
X2799116Y1074509D1*
Y1077826D1*
X2798007Y1078932D1*
X2795791Y1083356D1*
X2792466Y1084462D1*
X2791357Y1085568D1*
Y1087779D1*
X2786924Y1093309D1*
X2785816Y1096626D1*
X2782491Y1098838D1*
X2781382Y1099944D1*
Y1102156D1*
X2778057Y1103262D1*
Y1106579D1*
X2772515Y1113215D1*
X2771407Y1115426D1*
X2768082Y1116532D1*
Y1119850D1*
X2766974Y1120956D1*
X2764757Y1122062D1*
X2763649Y1123168D1*
Y1125379D1*
X2758107Y1133121D1*
X2756999Y1134226D1*
X2754782Y1135332D1*
Y1138650D1*
X2778057Y1139756D1*
Y1143074D1*
X2773624Y1146391D1*
X2772309Y1147634D1*
X2772515Y1148603D1*
X2769190Y1150815D1*
X2767876Y1152058D1*
X2768082Y1153026D1*
X2764757Y1155238D1*
X2763443Y1156481D1*
X2763649Y1157450D1*
X2760324Y1158556D1*
X2759215Y1159662D1*
Y1161874D1*
X2756999Y1162979D1*
X2754782Y1165191D1*
Y1166297D1*
X2752565Y1168509D1*
X2752781Y1169293D1*
X2753674Y1170721D1*
X2792835Y1171826D1*
X2831997D1*
X2871158Y1170721D1*
X2874483Y1169615D1*
Y1168509D1*
X2872267Y1167403D1*
X2862292Y1157450D1*
X2861183Y1155238D1*
X2857858Y1153026D1*
X2852316Y1147497D1*
Y1145285D1*
X2851208Y1144179D1*
X2847883Y1143074D1*
Y1139756D1*
X2870050Y1138650D1*
X2870943Y1137222D1*
X2871158Y1136438D1*
X2868942Y1134226D1*
X2866725Y1133121D1*
X2865617Y1128697D1*
X2865252Y1127355D1*
X2864508Y1126485D1*
X2862292Y1125379D1*
X2861183Y1124274D1*
Y1122062D1*
X2860075Y1120956D1*
X2856750Y1119850D1*
Y1116532D1*
X2855641Y1115426D1*
X2853425Y1114321D1*
X2851208Y1109897D1*
X2850844Y1108555D1*
X2850100Y1107685D1*
X2847883Y1106579D1*
Y1103262D1*
X2843450Y1101050D1*
Y1098838D1*
X2842341Y1097732D1*
X2840125Y1096626D1*
X2839016Y1095521D1*
X2837908Y1092203D1*
X2833475Y1086674D1*
X2829041Y1082250D1*
Y1080038D1*
X2831258Y1078932D1*
X2833475Y1081144D1*
X2837908Y1084462D1*
X2842341Y1088885D1*
Y1091097D1*
X2843450Y1092203D1*
X2846775Y1093309D1*
Y1094415D1*
X2848991Y1096626D1*
X2851208Y1097732D1*
Y1098838D1*
X2853425Y1101050D1*
X2855641Y1102156D1*
X2856750Y1104368D1*
X2861183Y1107685D1*
Y1108791D1*
X2863400Y1111003D1*
X2865617Y1112109D1*
Y1113215D1*
X2867833Y1115426D1*
X2870050Y1116532D1*
X2871158Y1118744D1*
X2874483Y1120956D1*
Y1122062D1*
X2876700Y1124274D1*
X2878917Y1125379D1*
X2880025Y1126485D1*
X2880241Y1127269D1*
X2881133Y1128697D1*
X2883350Y1129803D1*
X2884458Y1132015D1*
X2888892Y1135332D1*
Y1136438D1*
X2891108Y1138650D1*
X2893325Y1139756D1*
Y1140862D1*
X2895542Y1143074D1*
X2897759Y1144179D1*
Y1146391D1*
X2898867Y1147497D1*
X2902192Y1148603D1*
Y1149709D1*
X2904409Y1151921D1*
X2906625Y1153026D1*
X2907734Y1155238D1*
Y1156344D1*
X2906625Y1157450D1*
X2893325Y1158556D1*
Y1161874D1*
X2895542Y1162979D1*
X2896650Y1165191D1*
X2899975Y1167403D1*
X2902192Y1169615D1*
Y1170721D1*
X2917709Y1171826D1*
X2933226D1*
X2948742Y1170721D1*
Y1167403D1*
X2945417Y1166297D1*
Y1162979D1*
X2940984Y1161874D1*
X2939876Y1160768D1*
Y1158556D1*
X2938767Y1157450D1*
X2935442Y1156344D1*
Y1154132D1*
X2934334Y1153026D1*
X2931009Y1151921D1*
Y1149709D1*
X2929901Y1148603D1*
X2926576Y1147497D1*
Y1144179D1*
X2922142Y1143074D1*
Y1140862D1*
X2921034Y1139756D1*
X2917709Y1138650D1*
Y1136438D1*
X2916600Y1135332D1*
X2913275Y1134226D1*
X2912167Y1133121D1*
Y1129803D1*
X2908842Y1128697D1*
X2907734Y1127591D1*
X2907369Y1126250D1*
X2906625Y1125379D1*
X2903300Y1124274D1*
Y1122062D1*
X2902192Y1120956D1*
X2898867Y1119850D1*
Y1116532D1*
X2895542Y1115426D1*
X2894434Y1114321D1*
X2894069Y1112979D1*
X2893325Y1112109D1*
X2890000Y1111003D1*
Y1108791D1*
X2888892Y1107685D1*
X2885567Y1106579D1*
X2884458Y1105474D1*
Y1103262D1*
X2883350Y1102156D1*
X2881133Y1101050D1*
X2880025Y1099944D1*
X2879661Y1098602D1*
X2878917Y1097732D1*
X2875592Y1096626D1*
Y1094415D1*
X2874483Y1093309D1*
X2871158Y1092203D1*
Y1089991D1*
X2870050Y1088885D1*
X2866725Y1087779D1*
Y1084462D1*
X2862292Y1083356D1*
Y1081144D1*
X2861183Y1080038D1*
X2857858Y1078932D1*
X2856750Y1077826D1*
Y1075615D1*
X2855641Y1074509D1*
X2852316Y1073403D1*
Y1071191D1*
X2851208Y1070085D1*
X2848991Y1068979D1*
X2847883Y1067874D1*
Y1065662D1*
X2843450Y1064556D1*
Y1061238D1*
X2840125Y1060132D1*
X2839016Y1059026D1*
X2838652Y1057685D1*
X2837908Y1056815D1*
X2834583Y1055709D1*
Y1052391D1*
X2830149Y1051285D1*
X2829041Y1050179D1*
Y1047968D1*
X2827933Y1046862D1*
X2824608Y1045756D1*
Y1043544D1*
X2823499Y1042438D1*
X2820174Y1041332D1*
Y1039121D1*
X2819066Y1038015D1*
X2815741Y1036909D1*
Y1034697D1*
X2814633Y1033591D1*
X2813155Y1032485D1*
X2811677D1*
X2810199Y1033591D1*
X2809091Y1034697D1*
Y1036909D1*
X2805766Y1038015D1*
X2804658Y1039121D1*
Y1041332D1*
X2801332Y1042438D1*
X2800224Y1043544D1*
Y1045756D1*
X2796899Y1046862D1*
X2795791Y1047968D1*
Y1050179D1*
X2790249Y1055709D1*
X2786924Y1056815D1*
X2785816Y1057921D1*
Y1060132D1*
X2782491Y1061238D1*
X2781382Y1062344D1*
Y1064556D1*
X2778057Y1065662D1*
X2776949Y1066768D1*
Y1068979D1*
X2773624Y1070085D1*
X2772515Y1071191D1*
Y1073403D1*
X2769190Y1074509D1*
X2768082Y1075615D1*
Y1077826D1*
X2762540Y1083356D1*
X2759215Y1084462D1*
X2757901Y1085705D1*
X2758107Y1086674D1*
X2756999Y1087779D1*
X2754782Y1088885D1*
X2753674Y1089991D1*
Y1092203D1*
X2750349Y1093309D1*
X2749240Y1094415D1*
Y1096626D1*
X2745915Y1097732D1*
X2744807Y1098838D1*
Y1101050D1*
X2741482Y1102156D1*
X2740373Y1103262D1*
Y1105474D1*
X2734832Y1111003D1*
X2731507Y1112109D1*
X2730398Y1113215D1*
Y1115426D1*
X2727073Y1116532D1*
X2725965Y1117638D1*
Y1119850D1*
X2722640Y1120956D1*
X2721532Y1122062D1*
Y1124274D1*
X2718207Y1125379D1*
X2717098Y1126485D1*
Y1128697D1*
X2713773Y1129803D1*
X2712665Y1130909D1*
Y1133121D1*
X2707123Y1138650D1*
X2703798Y1139756D1*
X2702690Y1140862D1*
Y1143074D1*
X2699365Y1144179D1*
X2698256Y1145285D1*
Y1147497D1*
X2694931Y1148603D1*
X2693823Y1149709D1*
Y1151921D1*
X2690498Y1153026D1*
X2689183Y1154270D1*
X2689390Y1155238D1*
X2688281Y1156344D1*
X2686064Y1157450D1*
X2684956Y1158556D1*
Y1160768D1*
X2679414Y1166297D1*
X2676089Y1167403D1*
Y1170721D1*
X2643947D1*
X2645056Y1167403D1*
X2648381Y1166297D1*
X2649489Y1165191D1*
Y1162979D1*
X2653922Y1161874D1*
Y1158556D1*
X2657247Y1157450D1*
X2658356Y1156344D1*
Y1154132D1*
X2661681Y1153026D1*
X2662789Y1151921D1*
Y1149709D1*
X2667223Y1148603D1*
X2668331Y1147497D1*
Y1144179D1*
X2671656Y1143074D1*
X2672549Y1141646D1*
X2672764Y1140862D1*
X2673873Y1139756D1*
X2676089Y1138650D1*
X2676982Y1137222D1*
X2677198Y1136438D1*
X2678306Y1135332D1*
X2681631Y1134226D1*
Y1130909D1*
X2684956Y1129803D1*
X2686064Y1128697D1*
Y1126485D1*
X2689390Y1125379D1*
X2690498Y1124274D1*
Y1122062D1*
X2694931Y1120956D1*
X2696040Y1119850D1*
Y1116532D1*
X2699365Y1115426D1*
X2700258Y1113999D1*
X2700473Y1113215D1*
X2701581Y1112109D1*
X2703798Y1111003D1*
X2704906Y1109897D1*
Y1107685D1*
X2709340Y1106579D1*
Y1103262D1*
X2712665Y1102156D1*
X2713773Y1101050D1*
Y1098838D1*
X2717098Y1097732D1*
X2718207Y1096626D1*
Y1094415D1*
X2722640Y1093309D1*
X2723748Y1092203D1*
Y1088885D1*
X2727073Y1087779D1*
X2728182Y1086674D1*
Y1084462D1*
X2732615Y1083356D1*
Y1080038D1*
X2737048Y1078932D1*
Y1076721D1*
X2738157Y1075615D1*
X2740373Y1074509D1*
X2741482Y1073403D1*
Y1071191D1*
X2744807Y1070085D1*
X2745915Y1068979D1*
Y1066768D1*
X2750349Y1065662D1*
X2751457Y1064556D1*
Y1061238D1*
X2754782Y1060132D1*
X2755890Y1059026D1*
Y1056815D1*
X2759215Y1055709D1*
X2760324Y1054603D1*
Y1052391D1*
X2764757Y1051285D1*
Y1047968D1*
X2769190Y1046862D1*
Y1044650D1*
X2770299Y1043544D1*
X2772515Y1042438D1*
X2773624Y1041332D1*
Y1039121D1*
X2778057Y1038015D1*
X2779166Y1036909D1*
Y1033591D1*
X2783599Y1032485D1*
Y1029168D1*
X2786924Y1028062D1*
X2787817Y1026634D1*
X2788032Y1025850D1*
X2793574Y1020321D1*
X2795791Y1019215D1*
X2796899Y1018109D1*
Y1015897D1*
X2800224Y1014791D1*
X2801332Y1013685D1*
Y1011474D1*
X2805766Y1010368D1*
X2806874Y1009262D1*
Y1007050D1*
X2807983Y1005944D1*
X2810199Y1004838D1*
X2811308Y1003732D1*
Y1001521D1*
X2813524D1*
Y1003732D1*
X2814633Y1004838D1*
X2819066Y1005944D1*
Y1009262D1*
X2822391Y1010368D1*
X2841233Y1029168D1*
X2842341Y1031379D1*
X2846775Y1033591D1*
Y1036909D1*
X2851208Y1039121D1*
X2864508Y1052391D1*
X2865617Y1054603D1*
X2868942Y1056815D1*
X2870050Y1059026D1*
X2874483Y1061238D1*
Y1064556D1*
X2878917Y1066768D1*
X2896650Y1084462D1*
X2897759Y1086674D1*
X2902192Y1088885D1*
Y1092203D1*
X2905517Y1093309D1*
X2925467Y1113215D1*
Y1115426D1*
X2929901Y1116532D1*
Y1119850D1*
X2934334Y1122062D1*
X2953176Y1140862D1*
Y1143074D1*
X2957609Y1144179D1*
Y1147497D1*
X2962043Y1149709D1*
X2975343Y1162979D1*
X2976451Y1165191D1*
X2979776Y1167403D1*
X2980885Y1169615D1*
X2985318Y1171826D1*
Y1175144D1*
X2988643Y1176250D1*
X2994185Y1181779D1*
X2963151D1*
X2961304Y1180674D1*
X2959457D1*
X2957609Y1181779D1*
Y1226015D1*
X2960934Y1227121D1*
X2962043Y1230438D1*
X2966476Y1233756D1*
Y1234862D1*
X2968323Y1235968D1*
X2970170D1*
X2972018Y1234862D1*
Y1222697D1*
X2973126Y1221591D1*
X2974234D1*
X2976451Y1222697D1*
Y1223803D1*
X2978668Y1226015D1*
X2980885Y1227121D1*
Y1229332D1*
X2981993Y1230438D1*
X2985318Y1231544D1*
Y1232650D1*
X2987535Y1234862D1*
X2989751Y1235968D1*
Y1237074D1*
X2991968Y1239285D1*
X2994185Y1240391D1*
X2995293Y1242603D1*
X2999726Y1245921D1*
Y1247026D1*
X3001943Y1249238D1*
X3004160Y1250344D1*
Y1251450D1*
X3006376Y1253662D1*
X3008593Y1254768D1*
Y1256979D1*
X3009702Y1258085D1*
X3013027Y1259191D1*
Y1260297D1*
X3015243Y1262509D1*
X3017460Y1263615D1*
Y1264721D1*
X3019677Y1266932D1*
X3021893Y1268038D1*
X3023002Y1270250D1*
X3027435Y1273568D1*
Y1274674D1*
X3029652Y1276885D1*
X3031868Y1277991D1*
X3036302Y1282415D1*
Y1284626D1*
X3037410Y1285732D1*
X3040735Y1286838D1*
X3041844Y1289050D1*
X3045169Y1291262D1*
X3045723Y1292368D1*
X3046327Y1293375D1*
X3047396Y1294556D1*
X3048494Y1295685D1*
X3050710Y1297897D1*
X3049602Y1300109D1*
X3047385D1*
X3040735Y1293474D1*
X3034085Y1290156D1*
X3032977Y1289050D1*
X3032612Y1287708D1*
X3031868Y1286838D1*
X3028543Y1285732D1*
X3027435Y1284626D1*
Y1282415D1*
X3023002Y1281309D1*
X3022637Y1279967D1*
X3021893Y1279097D1*
X3015243Y1275779D1*
X3014879Y1274438D1*
X3014135Y1273568D1*
X3009702Y1272462D1*
Y1270250D1*
X3008593Y1269144D1*
X3004160Y1266932D1*
X3003795Y1265591D1*
X3003051Y1264721D1*
X3000835Y1263615D1*
X2997510Y1262509D1*
X2995293Y1260297D1*
Y1259191D1*
X2993815Y1258085D1*
X2992337D1*
X2990860Y1259191D1*
X2989751Y1260297D1*
Y1281309D1*
X2986426D1*
Y1279097D1*
X2985318Y1277991D1*
X2981993Y1276885D1*
X2976451Y1271356D1*
X2974234Y1268038D1*
X2972018Y1265826D1*
X2968693Y1263615D1*
X2962043Y1256979D1*
X2961639Y1255620D1*
X2960460Y1254678D1*
X2959456Y1254853D1*
X2958348Y1256146D1*
X2958718Y1256979D1*
X2957609Y1258085D1*
Y1374203D1*
X2959826Y1375309D1*
X2960654Y1376019D1*
X2961228Y1375954D1*
X2962030Y1375276D1*
X2963151Y1374203D1*
X2966476Y1371991D1*
X2967369Y1370563D1*
X2967584Y1369779D1*
X2970909Y1368674D1*
X2972018Y1367568D1*
Y1365356D1*
X2980885Y1356509D1*
X2985318Y1353191D1*
X2986211Y1351763D1*
X2986426Y1350979D1*
X2989751D1*
Y1373097D1*
X2991599Y1374203D1*
X2993446D1*
X2995293Y1373097D1*
Y1370885D1*
X2999726Y1369779D1*
X3001943Y1367568D1*
Y1366462D1*
X3004160Y1365356D1*
X3007485Y1364250D1*
X3008378Y1362822D1*
X3008593Y1362038D1*
X3009702Y1360932D1*
X3014135Y1359827D1*
Y1357615D1*
X3016352Y1356509D1*
X3019677Y1354297D1*
X3023002Y1350979D1*
X3027435Y1349874D1*
Y1347662D1*
X3030760Y1346556D1*
X3032977Y1345450D1*
Y1343238D1*
X3038519Y1339921D1*
X3041844Y1337709D1*
X3045169Y1336603D1*
X3046277Y1335497D1*
Y1333285D1*
X3049602D1*
Y1336603D1*
X3045169Y1337709D1*
Y1341027D1*
X3041844Y1344344D1*
X3040735Y1346556D1*
X3037410Y1347662D1*
X3036096Y1348905D1*
X3036302Y1349874D1*
X3035193Y1350979D1*
X3032977Y1352085D1*
X3031868Y1353191D1*
Y1355403D1*
X3027435Y1359827D1*
X3023002Y1362038D1*
X3021687Y1363282D1*
X3021893Y1364250D1*
X3019677Y1365356D1*
X3018362Y1366599D1*
X3018568Y1367568D1*
X3017460Y1369779D1*
X3014135Y1371991D1*
X3012821Y1373234D1*
X3013027Y1374203D1*
X3009702Y1375309D1*
X3008387Y1376552D1*
X3008593Y1377521D1*
X3007485Y1378627D1*
X3005268Y1379732D1*
X3004160Y1380838D1*
Y1383050D1*
X2999726Y1387474D1*
X2995293Y1389685D1*
X2993979Y1390929D1*
X2994185Y1391897D1*
X2991968Y1393003D1*
X2990654Y1394246D1*
X2990860Y1395215D1*
X2989751Y1397427D1*
X2986426Y1399638D1*
X2985112Y1400882D1*
X2985318Y1401850D1*
X2981993Y1402956D1*
X2980678Y1404199D1*
X2980885Y1405168D1*
X2979776Y1406274D1*
X2977559Y1407379D1*
X2976451Y1408485D1*
Y1410697D1*
X2974234Y1411803D1*
X2972018Y1410697D1*
X2970909Y1397427D1*
X2969734Y1396225D1*
X2969160Y1396405D1*
X2968693Y1397427D1*
X2964259Y1398532D1*
X2962043Y1400744D1*
Y1401850D1*
X2960934Y1404062D1*
X2959826Y1405168D1*
X2957609Y1406274D1*
Y1450509D1*
X2958718Y1451615D1*
X2960195Y1452721D1*
X2961673D1*
X2963151Y1451615D1*
Y1449403D1*
X2968693Y1443874D1*
X2972018Y1442768D1*
X2973126Y1441662D1*
Y1439450D1*
X2976451Y1438344D1*
X2977559Y1437238D1*
Y1435027D1*
X2980885Y1433921D1*
X2981993Y1432815D1*
Y1430603D1*
X2985318Y1429497D1*
X2986426Y1428391D1*
Y1426179D1*
X2989751Y1425074D1*
X2990860Y1423968D1*
Y1421756D1*
X2996401Y1416227D1*
X2999726Y1415121D1*
X3000835Y1414015D1*
Y1411803D1*
X3004160Y1410697D1*
X3005268Y1409591D1*
Y1407379D1*
X3008593Y1406274D1*
X3009702Y1405168D1*
Y1402956D1*
X3013027Y1401850D1*
X3014135Y1400744D1*
Y1398532D1*
X3017460Y1397427D1*
X3018568Y1396321D1*
Y1394109D1*
X3024110Y1388579D1*
X3027435Y1387474D1*
X3028543Y1386368D1*
Y1384156D1*
X3031868Y1383050D1*
X3032977Y1381944D1*
Y1379732D1*
X3036302Y1378627D1*
X3037410Y1377521D1*
Y1375309D1*
X3040735Y1374203D1*
X3041844Y1373097D1*
Y1370885D1*
X3045169Y1369779D1*
X3046277Y1368674D1*
Y1366462D1*
X3051819Y1360932D1*
X3056252Y1359827D1*
Y1356509D1*
X3059577Y1355403D1*
X3060685Y1354297D1*
Y1352085D1*
X3064010Y1350979D1*
X3065119Y1349874D1*
Y1347662D1*
X3068444Y1346556D1*
X3069337Y1345128D1*
X3069552Y1344344D1*
X3070661Y1343238D1*
X3072877Y1342132D1*
X3073986Y1341027D1*
Y1338815D1*
X3079527Y1333285D1*
X3082852Y1332179D1*
X3083961Y1331074D1*
Y1328862D1*
X3087286Y1327756D1*
X3088394Y1326650D1*
Y1324438D1*
X3091719Y1323332D1*
X3092827Y1322227D1*
Y1320015D1*
X3097261Y1317803D1*
Y1315591D1*
X3096153Y1314485D1*
X3092827Y1313379D1*
Y1311168D1*
X3091719Y1310062D1*
X3088394Y1308956D1*
Y1305638D1*
X3083961Y1304532D1*
Y1302321D1*
X3082852Y1301215D1*
X3079527Y1300109D1*
X3078419Y1299003D1*
Y1296791D1*
X3077311Y1295685D1*
X3073986Y1294579D1*
Y1292368D1*
X3072877Y1291262D1*
X3070661Y1290156D1*
X3069552Y1289050D1*
Y1286838D1*
X3065119Y1285732D1*
Y1282415D1*
X3061794Y1281309D1*
X3060685Y1280203D1*
X3060321Y1278861D1*
X3059577Y1277991D1*
X3056252Y1276885D1*
Y1273568D1*
X3051819Y1272462D1*
X3050710Y1271356D1*
Y1269144D1*
X3049602Y1268038D1*
X3046277Y1266932D1*
Y1264721D1*
X3045169Y1263615D1*
X3041844Y1262509D1*
Y1260297D1*
X3040735Y1259191D1*
X3037410Y1258085D1*
Y1255874D1*
X3036302Y1254768D1*
X3034085Y1253662D1*
X3028543Y1248132D1*
X3028179Y1246791D1*
X3027435Y1245921D1*
X3024110Y1244815D1*
X3023002Y1243709D1*
Y1241497D1*
X3021893Y1240391D1*
X3019677Y1239285D1*
X3018568Y1238179D1*
Y1235968D1*
X3014135Y1234862D1*
Y1232650D1*
X3013027Y1231544D1*
X3009702Y1230438D1*
Y1228226D1*
X3008593Y1227121D1*
X3006376Y1226015D1*
X3005268Y1224909D1*
Y1222697D1*
X3000835Y1221591D1*
Y1219379D1*
X2999726Y1218274D1*
X2996401Y1217168D1*
X2995293Y1216062D1*
Y1212744D1*
X2990860Y1211638D1*
Y1208321D1*
X2987535Y1207215D1*
X2986426Y1206109D1*
Y1203897D1*
X2981993Y1202791D1*
Y1199474D1*
X2978668Y1198368D1*
X2977559Y1197262D1*
X2977195Y1195920D1*
X2976451Y1195050D1*
X2973126Y1193944D1*
Y1190626D1*
X2968693Y1189521D1*
X2967584Y1188415D1*
Y1186203D1*
X2966476Y1185097D1*
X2963151Y1183991D1*
Y1181779D1*
X2994185D1*
X3003051Y1190626D1*
X3004160Y1192838D1*
X3007485Y1195050D1*
X3008593Y1197262D1*
X3013027Y1199474D1*
Y1202791D1*
X3017460Y1205003D1*
X3036302Y1223803D1*
Y1226015D1*
X3040735Y1227121D1*
Y1230438D1*
X3044060Y1231544D1*
X3062902Y1250344D1*
X3064010Y1252556D1*
X3068444Y1254768D1*
Y1258085D1*
X3072877Y1260297D1*
X3086177Y1273568D1*
X3087286Y1275779D1*
X3090611Y1277991D1*
X3091719Y1280203D1*
X3096153Y1282415D1*
Y1285732D1*
X3100586Y1287944D1*
X3119428Y1306744D1*
Y1308956D1*
X3123861Y1310062D1*
Y1313379D1*
X3124970Y1314485D1*
X3128295Y1315591D1*
Y1317803D1*
X3124970Y1318909D1*
X3123861Y1320015D1*
Y1322227D1*
X3119428Y1323332D1*
X3118319Y1324438D1*
Y1327756D1*
X3114994Y1328862D1*
X3113886Y1329968D1*
Y1332179D1*
X3110561Y1333285D1*
X3109453Y1334391D1*
Y1336603D1*
X3105019Y1337709D1*
Y1341027D1*
X3101694Y1342132D1*
X3100380Y1343376D1*
X3100586Y1344344D1*
X3099478Y1345450D1*
X3097261Y1346556D1*
X3096153Y1347662D1*
Y1349874D1*
X3091719Y1350979D1*
X3090611Y1352085D1*
Y1355403D1*
X3087286Y1356509D1*
X3085971Y1357752D1*
X3086177Y1358721D1*
X3085069Y1359827D1*
X3081744Y1360932D1*
Y1364250D1*
X3077311Y1365356D1*
Y1367568D1*
X3076202Y1368674D1*
X3073986Y1369779D1*
X3072877Y1370885D1*
Y1373097D1*
X3069552Y1374203D1*
X3068444Y1375309D1*
Y1377521D1*
X3064010Y1378627D1*
X3062902Y1379732D1*
Y1383050D1*
X3059577Y1384156D1*
X3058469Y1385262D1*
Y1387474D1*
X3055144Y1388579D1*
X3054035Y1389685D1*
Y1391897D1*
X3049602Y1393003D1*
Y1396321D1*
X3046277Y1397427D1*
X3045169Y1398532D1*
Y1400744D1*
X3041844Y1401850D1*
X3040735Y1402956D1*
Y1405168D1*
X3036302Y1406274D1*
X3035193Y1407379D1*
Y1410697D1*
X3031868Y1411803D1*
X3030760Y1412909D1*
Y1415121D1*
X3027435Y1416227D1*
X3026327Y1417332D1*
Y1419544D1*
X3021893Y1420650D1*
Y1423968D1*
X3018568Y1425074D1*
X3017460Y1426179D1*
Y1428391D1*
X3014135Y1429497D1*
X3013027Y1430603D1*
Y1432815D1*
X3008593Y1433921D1*
X3007485Y1435027D1*
Y1438344D1*
X3004160Y1439450D1*
X3003051Y1440556D1*
Y1442768D1*
X2999726Y1443874D1*
X2998618Y1444979D1*
Y1447191D1*
X2994185Y1448297D1*
Y1451615D1*
X2990860Y1452721D1*
X2989751Y1453827D1*
Y1456038D1*
X2986426Y1457144D1*
X2985318Y1458250D1*
Y1460462D1*
X2980885Y1461568D1*
X2979776Y1462674D1*
Y1465991D1*
X2976451Y1467097D1*
X2975343Y1468203D1*
Y1470415D1*
X2972018Y1471521D1*
X2970909Y1472627D1*
Y1474838D1*
X2966476Y1475944D1*
Y1479262D1*
X2963151Y1480368D1*
X2961837Y1481611D1*
X2962043Y1482579D1*
X2960934Y1483685D1*
X2958718Y1484791D1*
X2957609Y1485897D1*
Y1488109D1*
X2953176Y1489215D1*
X2952068Y1490321D1*
Y1493638D1*
X2948742Y1494744D1*
X2947634Y1495850D1*
Y1498062D1*
X2944309Y1499168D1*
X2943201Y1500274D1*
Y1502485D1*
X2938767Y1503591D1*
Y1506909D1*
X2935442Y1508015D1*
X2934334Y1509121D1*
Y1511332D1*
X2931009Y1512438D1*
X2929901Y1513544D1*
Y1515756D1*
X2925467Y1516862D1*
X2924359Y1517968D1*
Y1521285D1*
X2921034Y1522391D1*
X2919925Y1523497D1*
Y1525709D1*
X2916600Y1526815D1*
X2915492Y1527921D1*
Y1530132D1*
X2911059Y1531238D1*
Y1534556D1*
X2907734Y1535662D1*
X2906625Y1536768D1*
Y1538979D1*
X2903300Y1540085D1*
X2902192Y1541191D1*
Y1543403D1*
X2897759Y1544509D1*
X2896650Y1545615D1*
Y1548932D1*
X2893325Y1550038D1*
X2892217Y1551144D1*
Y1553356D1*
X2888892Y1554462D1*
X2887783Y1555568D1*
Y1557779D1*
X2883350Y1558885D1*
Y1562203D1*
X2880025Y1563309D1*
X2878917Y1564415D1*
Y1566627D1*
X2875592Y1567732D1*
X2874483Y1568838D1*
Y1571050D1*
X2870050Y1572156D1*
X2868942Y1573262D1*
Y1576579D1*
X2865617Y1577685D1*
X2864302Y1578929D1*
X2864508Y1579897D1*
X2863400Y1581003D1*
X2860075Y1582109D1*
Y1585427D1*
X2855641Y1586532D1*
Y1588744D1*
X2854533Y1589850D1*
X2852316Y1590956D1*
X2851208Y1592062D1*
Y1594274D1*
X2847883Y1595379D1*
X2846775Y1596485D1*
Y1598697D1*
X2842341Y1599803D1*
X2841233Y1600909D1*
Y1604227D1*
X2837908Y1605332D1*
X2836800Y1606438D1*
Y1608650D1*
X2833475Y1609756D1*
X2832366Y1610862D1*
Y1613074D1*
X2827933Y1614179D1*
Y1617497D1*
X2824608Y1618603D1*
X2823499Y1619709D1*
Y1621921D1*
X2820174Y1623027D1*
X2819066Y1624132D1*
Y1626344D1*
X2814633Y1627450D1*
X2813524Y1628556D1*
Y1630768D1*
X2811308D1*
Y1628556D1*
X2810199Y1627450D1*
X2806874Y1626344D1*
Y1624132D1*
X2805766Y1623027D1*
X2801332Y1621921D1*
Y1619709D1*
X2800224Y1618603D1*
X2798007Y1617497D1*
X2788032Y1607544D1*
X2787668Y1606203D1*
X2786924Y1605332D1*
X2783599Y1604227D1*
Y1600909D1*
X2782491Y1599803D1*
X2779166Y1598697D1*
X2810199D1*
X2811677Y1599803D1*
X2813155D1*
X2814633Y1598697D1*
Y1597591D1*
X2815741Y1596485D1*
X2819066Y1595379D1*
X2820174Y1594274D1*
Y1592062D1*
X2823499Y1590956D1*
X2824608Y1589850D1*
Y1587638D1*
X2830149Y1582109D1*
X2834583Y1581003D1*
Y1577685D1*
X2837908Y1576579D1*
X2839016Y1575474D1*
Y1573262D1*
X2842341Y1572156D1*
X2843450Y1571050D1*
Y1568838D1*
X2846775Y1567732D1*
X2847668Y1566305D1*
X2847883Y1565521D1*
X2848991Y1564415D1*
X2851208Y1563309D1*
X2852316Y1562203D1*
Y1559991D1*
X2857858Y1554462D1*
X2861183Y1553356D1*
X2862292Y1552250D1*
Y1550038D1*
X2865617Y1548932D1*
X2866725Y1547827D1*
Y1545615D1*
X2870050Y1544509D1*
X2871158Y1543403D1*
Y1541191D1*
X2874483Y1540085D1*
X2875592Y1538979D1*
Y1536768D1*
X2878917Y1535662D1*
X2880025Y1534556D1*
Y1532344D1*
X2885567Y1526815D1*
X2888892Y1525709D1*
X2890000Y1524603D1*
Y1522391D1*
X2893325Y1521285D1*
X2894434Y1520179D1*
Y1517968D1*
X2897759Y1516862D1*
X2898867Y1515756D1*
Y1513544D1*
X2902192Y1512438D1*
X2903085Y1511010D1*
X2903300Y1510227D1*
X2904409Y1509121D1*
X2906625Y1508015D1*
X2907734Y1506909D1*
Y1504697D1*
X2913275Y1499168D1*
X2916600Y1498062D1*
X2917709Y1496956D1*
Y1494744D1*
X2921034Y1493638D1*
X2922142Y1492532D1*
Y1490321D1*
X2925467Y1489215D1*
X2926576Y1488109D1*
Y1485897D1*
X2929901Y1484791D1*
X2931009Y1483685D1*
Y1481474D1*
X2934334Y1480368D1*
X2935442Y1479262D1*
Y1477050D1*
X2940984Y1471521D1*
X2944309Y1470415D1*
X2945417Y1469309D1*
Y1467097D1*
X2948742Y1465991D1*
X2949851Y1464885D1*
Y1462674D1*
X2945417Y1461568D1*
X2931378Y1460462D1*
X2917339D1*
X2903300Y1461568D1*
X2898867Y1462674D1*
X2897759Y1463779D1*
Y1465991D1*
X2895542Y1467097D1*
X2893325Y1469309D1*
Y1471521D1*
X2892217Y1472627D1*
X2894434Y1474838D1*
X2906625Y1475944D1*
X2907734Y1477050D1*
Y1478156D1*
X2906625Y1480368D1*
X2903300Y1482579D1*
X2901986Y1483823D1*
X2902192Y1484791D1*
X2898867Y1485897D1*
X2897553Y1487140D1*
X2897759Y1488109D1*
X2896650Y1489215D1*
X2894434Y1490321D1*
X2893325Y1491427D1*
Y1493638D1*
X2888892Y1498062D1*
X2884458Y1500274D1*
X2883144Y1501517D1*
X2883350Y1502485D1*
X2881133Y1503591D1*
X2879819Y1504834D1*
X2880025Y1505803D1*
X2878917Y1508015D1*
X2875592Y1510227D1*
X2874277Y1511470D1*
X2874483Y1512438D1*
X2871158Y1513544D1*
X2869844Y1514787D1*
X2870050Y1515756D1*
X2868942Y1516862D1*
X2866725Y1517968D1*
X2865617Y1519074D1*
Y1521285D1*
X2861183Y1525709D1*
X2856750Y1527921D1*
X2855435Y1529164D1*
X2855641Y1530132D1*
X2853425Y1531238D1*
X2852110Y1532482D1*
X2852316Y1533450D1*
X2851208Y1535662D1*
X2847883Y1537874D1*
X2846569Y1539117D1*
X2846775Y1540085D1*
X2843450Y1541191D1*
X2842135Y1542434D1*
X2842341Y1543403D1*
X2841233Y1544509D1*
X2839016Y1545615D1*
X2837908Y1546721D1*
Y1548932D1*
X2833475Y1552250D1*
X2832366Y1553356D1*
X2829041Y1554462D1*
X2827933Y1555568D1*
Y1557779D1*
X2825716D1*
Y1555568D1*
X2826824Y1554462D1*
X2829041Y1550038D1*
X2833475Y1548932D1*
Y1545615D1*
X2837908Y1540085D1*
X2839016Y1536768D1*
X2842341Y1535662D1*
X2843450Y1534556D1*
Y1531238D1*
X2846775Y1530132D1*
X2847883Y1529027D1*
Y1526815D1*
X2852316Y1519074D1*
X2853425Y1517968D1*
X2855641Y1516862D1*
X2856750Y1515756D1*
Y1513544D1*
X2863400Y1506909D1*
Y1505803D1*
X2866725Y1500274D1*
X2867833Y1499168D1*
X2870050Y1498062D1*
X2870888Y1496574D1*
X2870778Y1495578D1*
X2870050Y1494744D1*
X2848991Y1493638D1*
X2847883Y1492532D1*
Y1490321D1*
X2850100Y1488109D1*
X2851183Y1486949D1*
X2852097Y1485568D1*
X2852316Y1484791D1*
X2855641Y1482579D1*
X2856534Y1481152D1*
X2856750Y1480368D1*
X2860075Y1479262D1*
X2861183Y1478156D1*
Y1475944D1*
X2870050Y1467097D1*
X2874483Y1464885D1*
Y1462674D1*
X2870050Y1461568D1*
X2831627Y1460462D1*
X2793205D1*
X2754782Y1461568D1*
X2751457Y1462674D1*
X2750349Y1463779D1*
X2752565Y1465991D1*
X2754782Y1467097D1*
Y1468203D1*
X2756999Y1470415D1*
X2759215Y1471521D1*
X2759431Y1472305D1*
X2760324Y1473732D1*
X2762540Y1474838D1*
X2764757Y1477050D1*
X2764973Y1477834D1*
X2765865Y1479262D1*
X2768082Y1480368D1*
Y1481474D1*
X2770299Y1483685D1*
X2772515Y1484791D1*
X2776949Y1489215D1*
X2778057Y1491427D1*
X2775841Y1493638D1*
X2754782Y1494744D1*
Y1498062D1*
X2758107Y1499168D1*
Y1502485D1*
X2762540Y1504697D1*
X2763649Y1508015D1*
Y1509121D1*
X2765865Y1511332D1*
X2768082Y1512438D1*
Y1515756D1*
X2772515Y1517968D1*
Y1521285D1*
X2773624Y1522391D1*
X2775841Y1523497D1*
X2776949Y1524603D1*
X2778057Y1526815D1*
X2780274Y1530132D1*
X2781382Y1531238D1*
X2782491Y1533450D1*
X2782706Y1534234D1*
X2783599Y1535662D1*
X2785816Y1536768D1*
Y1538979D1*
X2788032Y1541191D1*
X2790249Y1542297D1*
X2791357Y1544509D1*
Y1546721D1*
X2793574Y1548932D1*
X2795791Y1550038D1*
Y1553356D1*
X2799116Y1554462D1*
X2800224Y1555568D1*
Y1556674D1*
X2799116Y1557779D1*
X2798007D1*
X2796899Y1556674D1*
Y1554462D1*
X2792466Y1553356D1*
Y1550038D1*
X2788032Y1548932D1*
X2783599Y1544509D1*
X2782491Y1542297D1*
X2778057Y1538979D1*
X2773624Y1534556D1*
Y1532344D1*
X2772515Y1531238D1*
X2769190Y1530132D1*
Y1527921D1*
X2768082Y1526815D1*
X2764757Y1525709D1*
Y1523497D1*
X2763649Y1522391D1*
X2760324Y1521285D1*
X2755890Y1516862D1*
X2755336Y1515756D1*
X2754683Y1514600D1*
X2753666Y1513541D1*
X2750349Y1510227D1*
X2747024Y1508015D1*
X2745915Y1506909D1*
Y1503591D1*
X2741482Y1502485D1*
Y1500274D1*
X2740373Y1499168D1*
X2737048Y1498062D1*
Y1495850D1*
X2735940Y1494744D1*
X2732615Y1493638D1*
X2731507Y1492532D1*
X2729290Y1489215D1*
X2727073Y1487003D1*
X2722640Y1483685D1*
X2718207Y1479262D1*
Y1475944D1*
X2730398Y1474838D1*
X2731507Y1473732D1*
Y1468203D1*
X2727073Y1465991D1*
Y1463779D1*
X2725965Y1462674D1*
X2722640Y1461568D1*
X2708601Y1460462D1*
X2694562D1*
X2680523Y1461568D1*
X2676089Y1462674D1*
Y1465991D1*
X2680523Y1467097D1*
Y1470415D1*
X2684956Y1471521D1*
Y1474838D1*
X2689390Y1475944D1*
Y1479262D1*
X2692715Y1480368D1*
X2703798Y1491427D1*
Y1493638D1*
X2708231Y1494744D1*
Y1498062D1*
X2712665Y1499168D1*
Y1502485D1*
X2717098Y1503591D1*
Y1506909D1*
X2720423Y1508015D1*
X2731507Y1519074D1*
Y1521285D1*
X2735940Y1522391D1*
Y1524603D1*
X2737048Y1525709D1*
X2740373Y1526815D1*
Y1530132D1*
X2744807Y1531238D1*
Y1534556D1*
X2748132Y1535662D1*
X2759215Y1546721D1*
Y1548932D1*
X2763649Y1550038D1*
Y1552250D1*
X2764757Y1553356D1*
X2768082Y1554462D1*
Y1557779D1*
X2772515Y1558885D1*
Y1562203D1*
X2775841Y1563309D1*
X2786924Y1574368D1*
Y1576579D1*
X2791357Y1577685D1*
Y1581003D1*
X2795791Y1582109D1*
Y1584321D1*
X2796899Y1585427D1*
X2800224Y1586532D1*
Y1589850D1*
X2803549Y1590956D1*
X2805766Y1593168D1*
X2810199Y1596485D1*
Y1598697D1*
X2779166D1*
Y1596485D1*
X2778057Y1595379D1*
X2774732Y1594274D1*
X2773624Y1593168D1*
X2773260Y1591826D1*
X2772515Y1590956D1*
X2770299Y1589850D1*
X2764757Y1584321D1*
Y1582109D1*
X2760324Y1581003D1*
Y1577685D1*
X2756999Y1576579D1*
X2755890Y1575474D1*
Y1573262D1*
X2754782Y1572156D1*
X2751457Y1571050D1*
Y1568838D1*
X2750349Y1567732D1*
X2745915Y1566627D1*
Y1564415D1*
X2744807Y1563309D1*
X2741482Y1562203D1*
Y1558885D1*
X2738157Y1557779D1*
X2737048Y1556674D1*
Y1554462D1*
X2732615Y1553356D1*
Y1550038D1*
X2728182Y1548932D1*
Y1545615D1*
X2727073Y1544509D1*
X2723748Y1543403D1*
Y1541191D1*
X2722640Y1540085D1*
X2718207Y1538979D1*
Y1536768D1*
X2717098Y1535662D1*
X2713773Y1534556D1*
Y1531238D1*
X2710448Y1530132D1*
X2709340Y1529027D1*
Y1526815D1*
X2704906Y1525709D1*
Y1523497D1*
X2703798Y1522391D1*
X2700473Y1521285D1*
Y1517968D1*
X2699365Y1516862D1*
X2696040Y1515756D1*
Y1513544D1*
X2694931Y1512438D1*
X2691606Y1511332D1*
X2690498Y1510227D1*
Y1508015D1*
X2686064Y1506909D1*
Y1503591D1*
X2682739Y1502485D1*
X2681631Y1501379D1*
Y1499168D1*
X2677198Y1498062D1*
Y1495850D1*
X2676089Y1494744D1*
X2673873Y1493638D1*
X2672764Y1492532D1*
Y1490321D1*
X2671656Y1489215D1*
X2668331Y1488109D1*
Y1485897D1*
X2667223Y1484791D1*
X2662789Y1483685D1*
Y1481474D1*
X2661681Y1480368D1*
X2658356Y1479262D1*
Y1475944D1*
X2655031Y1474838D1*
X2645056Y1464885D1*
Y1462674D1*
X2643947Y1461568D1*
X2640622Y1460462D1*
Y1458250D1*
X2639514Y1457144D1*
X2636189Y1456038D1*
X2635081Y1454932D1*
X2634716Y1453591D1*
X2633972Y1452721D1*
X2631756Y1451615D1*
X2661681D1*
X2663528Y1452721D1*
X2665375D1*
X2667223Y1451615D1*
Y1448297D1*
X2668331Y1442768D1*
X2684956D1*
X2769929Y1443874D1*
X2854902D1*
X2939876Y1442768D1*
Y1190626D1*
X2854902Y1189521D1*
X2769929D1*
X2684956Y1190626D1*
Y1442768D1*
X2668331D1*
G37*
G36*
X2803549Y1562203D2*
X2802441Y1561097D1*
X2803549Y1559991D1*
Y1562203D1*
G37*
G36*
X2821837D2*
Y1561097D1*
X2822945D1*
Y1562203D1*
X2821837D1*
G37*
G36*
X2737048Y1397427D2*
X2727073Y1387474D1*
Y1385262D1*
X2725965Y1384156D1*
X2723748Y1383050D1*
X2722640Y1381944D1*
Y1379732D1*
X2721532Y1378627D1*
X2719315Y1377521D1*
X2718207Y1376415D1*
Y1371991D1*
X2717098Y1370885D1*
X2714881Y1369779D1*
X2713773Y1368674D1*
X2712665Y1364250D1*
X2709340Y1359827D1*
X2708231Y1350979D1*
X2704906Y1346556D1*
X2703798Y1342132D1*
X2702690Y1327756D1*
X2701581Y1323332D1*
X2700473Y1320015D1*
Y1304532D1*
X2701581Y1301215D1*
X2702690Y1296791D1*
X2703798Y1286838D1*
X2704906Y1280203D1*
X2709340Y1275779D1*
Y1269144D1*
X2710448Y1268038D1*
X2712665Y1264721D1*
X2713773Y1260297D1*
X2714881Y1259191D1*
X2717098Y1258085D1*
X2718207Y1256979D1*
Y1251450D1*
X2719315Y1250344D1*
X2722640Y1249238D1*
X2723748Y1248132D1*
Y1245921D1*
X2727073Y1244815D1*
Y1241497D1*
X2728182Y1240391D1*
X2731507Y1239285D1*
Y1232650D1*
X2728182Y1231544D1*
X2727073Y1230438D1*
Y1228226D1*
X2725965Y1227121D1*
X2722640Y1226015D1*
X2718207Y1221591D1*
Y1220485D1*
X2715990Y1218274D1*
X2713773Y1217168D1*
X2712665Y1214956D1*
X2709340Y1212744D1*
Y1211638D1*
X2707123Y1209426D1*
X2704906Y1208321D1*
X2703798Y1207215D1*
X2703434Y1205873D1*
X2702690Y1205003D1*
X2700473Y1203897D1*
X2699365Y1202791D1*
Y1200579D1*
X2700473Y1199474D1*
X2735940D1*
X2738157Y1200579D1*
X2739265Y1201685D1*
X2739481Y1202469D1*
X2740373Y1203897D1*
X2742590Y1205003D1*
X2743698Y1206109D1*
Y1207215D1*
X2745915Y1209426D1*
X2748132Y1210532D1*
X2754782Y1217168D1*
X2756260Y1218274D1*
X2757738D1*
X2759215Y1217168D1*
Y1216062D1*
X2760324Y1213850D1*
X2769190Y1211638D1*
Y1209426D1*
X2773624Y1208321D1*
X2779166Y1207215D1*
X2781382Y1206109D1*
X2782491Y1205003D1*
X2788032Y1203897D1*
X2796899Y1202791D1*
X2800224Y1201685D1*
X2801332Y1200579D1*
X2806874Y1199474D1*
X2824608D1*
X2832366Y1200579D1*
Y1201685D1*
X2836800Y1202791D1*
X2846775Y1203897D1*
X2851208Y1205003D1*
X2852316Y1206109D1*
X2854533Y1207215D1*
X2860075Y1208321D1*
X2864508Y1209426D1*
X2864724Y1210210D1*
X2865617Y1211638D1*
X2868942Y1212744D1*
X2874483Y1213850D1*
Y1216062D1*
X2875592Y1217168D1*
X2880025Y1218274D1*
X2887783Y1222697D1*
Y1224909D1*
X2888892Y1226015D1*
X2892217Y1227121D1*
X2897759Y1232650D1*
Y1234862D1*
X2902192Y1235968D1*
Y1238179D1*
X2903300Y1239285D1*
X2905517Y1240391D1*
X2906625Y1241497D1*
Y1243709D1*
X2907734Y1244815D1*
X2911059Y1245921D1*
Y1249238D1*
X2915492Y1251450D1*
X2916600Y1254768D1*
X2918817Y1259191D1*
X2919925Y1260297D1*
X2921034Y1263615D1*
Y1265826D1*
X2922142Y1266932D1*
X2924359Y1268038D1*
X2925467Y1273568D1*
Y1280203D1*
X2926576Y1281309D1*
X2928792Y1282415D1*
X2929901Y1283521D1*
X2931009Y1302321D1*
X2932117Y1310062D1*
Y1317803D1*
X2931009Y1324438D1*
X2929901Y1344344D1*
X2928792Y1346556D1*
X2925467Y1347662D1*
Y1355403D1*
X2924359Y1359827D1*
X2922142Y1360932D1*
X2921034Y1362038D1*
Y1364250D1*
X2919925Y1368674D1*
X2918817Y1369779D1*
X2916600Y1373097D1*
X2915492Y1377521D1*
X2912167Y1378627D1*
X2911059Y1379732D1*
Y1383050D1*
X2907734Y1384156D1*
X2906625Y1385262D1*
Y1387474D1*
X2904409Y1388579D1*
X2902192Y1390791D1*
Y1391897D1*
X2901084Y1393003D1*
X2898867Y1394109D1*
X2897553Y1395352D1*
X2897759Y1396321D1*
X2896650Y1397427D1*
X2894434Y1398532D1*
X2893119Y1399776D1*
X2893325Y1400744D1*
X2892217Y1401850D1*
X2888892Y1404062D1*
X2882242Y1410697D1*
X2877808Y1411803D1*
X2875592Y1412909D1*
X2874277Y1414152D1*
X2874483Y1415121D1*
X2865617Y1419544D1*
X2860075Y1420650D1*
X2856750Y1421756D1*
X2855435Y1422999D1*
X2855641Y1423968D1*
X2850100Y1425074D1*
X2840125Y1428391D1*
X2824608Y1429497D1*
X2807983D1*
X2793574Y1428391D1*
X2792466Y1427285D1*
X2783599Y1425074D1*
X2778057Y1423968D1*
X2777693Y1422626D1*
X2776949Y1421756D1*
X2773624Y1420650D1*
X2769190Y1419544D1*
X2765865Y1417332D1*
X2759215Y1415121D1*
X2758851Y1413779D1*
X2758107Y1412909D1*
X2755890Y1411803D1*
X2752565Y1410697D1*
X2751457Y1409591D1*
X2751093Y1408250D1*
X2750349Y1407379D1*
X2747024Y1406274D1*
X2745915Y1405168D1*
X2745551Y1403826D1*
X2744807Y1402956D1*
X2741482Y1401850D1*
X2740373Y1400744D1*
X2740009Y1399403D1*
X2739265Y1398532D1*
X2737048Y1397427D1*
X2800224D1*
X2811308Y1398532D1*
X2822391D1*
X2833475Y1397427D1*
X2842341Y1396321D1*
X2843234Y1394893D1*
X2843450Y1394109D1*
X2846775Y1393003D1*
X2852316Y1391897D1*
X2854533Y1390791D1*
X2856750Y1388579D1*
X2862292Y1386368D1*
X2863400Y1385262D1*
X2870050Y1381944D1*
Y1379732D1*
X2871158Y1378627D1*
X2875592Y1377521D1*
Y1375309D1*
X2876700Y1374203D1*
X2878917Y1373097D1*
X2880025Y1371991D1*
Y1369779D1*
X2882242Y1368674D1*
X2883135Y1367246D1*
X2883350Y1366462D1*
X2884458Y1363144D1*
X2885567Y1360932D1*
X2888892Y1359827D1*
Y1356509D1*
X2890000Y1353191D1*
X2891108Y1352085D1*
X2893325Y1347662D1*
X2894434Y1342132D1*
X2896650Y1338815D1*
X2897759Y1329968D1*
X2898867Y1328862D1*
Y1300109D1*
X2897759Y1299003D1*
X2896650Y1289050D1*
X2894434Y1286838D1*
X2893325Y1281309D1*
X2891108Y1276885D1*
X2890000Y1275779D1*
X2888892Y1272462D1*
Y1269144D1*
X2887783Y1268038D1*
X2884458Y1266932D1*
X2882242Y1262509D1*
X2880025Y1260297D1*
X2877808Y1256979D1*
X2877444Y1255638D1*
X2876700Y1254768D1*
X2874483Y1253662D1*
X2867833Y1249238D1*
X2866725Y1248132D1*
X2866361Y1246791D1*
X2865617Y1245921D1*
X2862292Y1244815D1*
X2861183Y1243709D1*
Y1241497D1*
X2852316Y1239285D1*
Y1237074D1*
X2846775Y1235968D1*
X2839016Y1234862D1*
X2838652Y1233520D1*
X2837908Y1232650D1*
X2820174Y1231544D1*
X2818697Y1230438D1*
X2817219D1*
X2815741Y1231544D1*
X2796899Y1232650D1*
X2795585Y1233893D1*
X2795791Y1234862D1*
X2791357Y1235968D1*
X2785816Y1237074D1*
X2780274Y1242603D1*
X2781382Y1243709D1*
X2781598Y1244493D1*
X2782491Y1245921D1*
X2784707Y1247026D1*
X2785816Y1248132D1*
X2790249Y1251450D1*
X2790464Y1252234D1*
X2791357Y1253662D1*
X2793574Y1254768D1*
X2794682Y1255874D1*
X2795791Y1258085D1*
X2799116Y1260297D1*
X2800224Y1261403D1*
Y1263615D1*
X2804658Y1264721D1*
Y1266932D1*
X2805766Y1268038D1*
X2809091Y1269144D1*
Y1271356D1*
X2810199Y1272462D1*
X2812416Y1273568D1*
X2813524Y1274674D1*
X2813740Y1275458D1*
X2814633Y1276885D1*
X2817958Y1277991D1*
X2823499Y1283521D1*
Y1285732D1*
X2824608Y1286838D1*
X2827933Y1287944D1*
Y1290156D1*
X2823499Y1291262D1*
X2789141D1*
X2786924Y1290156D1*
X2786560Y1288814D1*
X2785816Y1287944D1*
X2783599Y1286838D1*
X2782491Y1285732D1*
Y1284626D1*
X2780274Y1282415D1*
X2778057Y1281309D1*
X2777693Y1279967D1*
X2776949Y1279097D1*
X2774732Y1277991D1*
X2768082Y1271356D1*
X2767718Y1270014D1*
X2766974Y1269144D1*
X2764757Y1268038D1*
Y1266932D1*
X2762540Y1264721D1*
X2760324Y1263615D1*
X2756999Y1260297D1*
X2755367Y1260408D1*
X2754448Y1261655D1*
X2754782Y1262509D1*
X2751457Y1263615D1*
X2749240Y1265826D1*
Y1268038D1*
X2744807Y1269144D1*
Y1273568D1*
X2743698Y1276885D1*
X2740373Y1277991D1*
Y1284626D1*
X2737048Y1289050D1*
X2735940Y1303426D1*
X2734832Y1310062D1*
X2733723Y1311168D1*
Y1317803D1*
X2734832Y1318909D1*
X2735940Y1324438D1*
X2737048Y1341027D1*
X2739265Y1344344D1*
X2740373Y1346556D1*
X2741482Y1352085D1*
X2744807Y1356509D1*
Y1359827D1*
X2745915Y1360932D1*
X2748132Y1362038D1*
X2749240Y1363144D1*
X2750349Y1365356D1*
Y1367568D1*
X2751457Y1368674D1*
X2753674Y1369779D1*
X2759215Y1375309D1*
Y1377521D1*
X2763649Y1378627D1*
X2764757Y1380838D1*
X2764973Y1381622D1*
X2765865Y1383050D1*
X2769190Y1384156D1*
X2778057Y1388579D1*
X2781382Y1391897D1*
X2788032Y1393003D1*
X2791357Y1394109D1*
Y1396321D1*
X2800224Y1397427D1*
X2737048D1*
G37*
G36*
X3051819Y1332179D2*
Y1329968D1*
X3054035D1*
Y1332179D1*
X3051819D1*
G37*
G36*
X2566363Y1327756D2*
Y1324438D1*
X2568580D1*
Y1327756D1*
X2566363D1*
G37*
G36*
X3057360Y1326650D2*
Y1325544D1*
X3058469D1*
X3057360Y1326650D1*
G37*
G36*
X2567471Y1307850D2*
X2566363Y1306744D1*
X2568580D1*
X2567471Y1307850D1*
G37*
G36*
X3052927Y1303426D2*
X3051819Y1302321D1*
X3052927Y1301215D1*
X3054035D1*
Y1303426D1*
X3052927D1*
G37*
G36*
X2826824Y1077826D2*
X2825716Y1076721D1*
Y1075615D1*
X2826824D1*
X2827933Y1076721D1*
Y1077826D1*
X2826824D1*
G37*
G36*
X2801967Y1072010D2*
X2802333Y1071411D1*
X2803280Y1071986D1*
X2802914Y1072585D1*
X2801967Y1072010D1*
G37*
X3325723Y888821D2*
D97*
X3327624Y892623D1*
X3331471Y896470D1*
X3335273Y898371D1*
X3342923D1*
X3346769Y896470D1*
X3350572Y892623D1*
X3352517Y888821D1*
X3354419Y883073D1*
Y873478D1*
X3352517Y867774D1*
X3350572Y863927D1*
X3346769Y860125D1*
X3342923Y858179D1*
X3335273D1*
X3331471Y860125D1*
X3327624Y863927D1*
X3325723Y867774D1*
Y873478D1*
X3335273D1*
X3313371Y877325D2*
X3296127D1*
X3290423Y879226D1*
X3288478Y881171D1*
X3286577Y884974D1*
Y890722D1*
X3288478Y894525D1*
X3290423Y896470D1*
X3296127Y898371D1*
X3313371D1*
Y858179D1*
X3247431Y892623D2*
X3251233Y896470D1*
X3256981Y898371D1*
X3264630D1*
X3270378Y896470D1*
X3274225Y892623D1*
Y888821D1*
X3272280Y884974D1*
X3270378Y883073D1*
X3266576Y881171D1*
X3255080Y877325D1*
X3251233Y875423D1*
X3249332Y873478D1*
X3247431Y869675D1*
Y863927D1*
X3251233Y860125D1*
X3256981Y858179D1*
X3264630D1*
X3270378Y860125D1*
X3274225Y863927D1*
X3235079Y898371D2*
Y858179D1*
X3221682D1*
X3215934Y860125D1*
X3212087Y863927D1*
X3210186Y867774D1*
X3208284Y873478D1*
Y883073D1*
X3210186Y888821D1*
X3212087Y892623D1*
X3215934Y896470D1*
X3221682Y898371D1*
X3235079D1*
X3184437D2*
X3188284Y896470D1*
X3192086Y892623D1*
X3194032Y888821D1*
X3195933Y883073D1*
Y873478D1*
X3194032Y867774D1*
X3192086Y863927D1*
X3188284Y860125D1*
X3184437Y858179D1*
X3176788D1*
X3172985Y860125D1*
X3169138Y863927D1*
X3167237Y867774D1*
X3165336Y873478D1*
Y883073D1*
X3167237Y888821D1*
X3169138Y892623D1*
X3172985Y896470D1*
X3176788Y898371D1*
X3184437D1*
X3114104Y884974D2*
X3102608Y858179D1*
X3091156Y884974D1*
X3078804Y890678D2*
X3074958Y892623D1*
X3069210Y898327D1*
Y858179D1*
X3054957Y862026D2*
X3056858Y860081D1*
X3054957Y858179D1*
X3053011Y860081D1*
X3054957Y862026D1*
X3029164Y898327D2*
X3034912Y896426D1*
X3038759Y890678D1*
X3040660Y881127D1*
Y875379D1*
X3038759Y865829D1*
X3034912Y860081D1*
X3029164Y858179D1*
X3025361D1*
X3019613Y860081D1*
X3015811Y865829D1*
X3013865Y875379D1*
Y881127D1*
X3015811Y890678D1*
X3019613Y896426D1*
X3025361Y898327D1*
X3029164D1*
X3015811Y890678D2*
X3038759Y865829D1*
X2949236Y908850D2*
X2953083Y905048D1*
X2956885Y899300D1*
X2960732Y891651D1*
X2962633Y882056D1*
Y874406D1*
X2960732Y864856D1*
X2956885Y857207D1*
X2953083Y851459D1*
X2949236Y847656D1*
X2908189Y888821D2*
X2910090Y892623D1*
X2913937Y896470D1*
X2917739Y898371D1*
X2925388D1*
X2929235Y896470D1*
X2933038Y892623D1*
X2934983Y888821D1*
X2936884Y883073D1*
Y873478D1*
X2934983Y867774D1*
X2933038Y863927D1*
X2929235Y860125D1*
X2925388Y858179D1*
X2917739D1*
X2913937Y860125D1*
X2910090Y863927D1*
X2908189Y867774D1*
X2895837Y908850D2*
X2891990Y905048D1*
X2888188Y899300D1*
X2884341Y891651D1*
X2882440Y882056D1*
Y874406D1*
X2884341Y864856D1*
X2888188Y857207D1*
X2891990Y851459D1*
X2895837Y847656D1*
X2829262Y888777D2*
Y890678D1*
X2827361Y894525D1*
X2825460Y896426D1*
X2821613Y898327D1*
X2813964D1*
X2810161Y896426D1*
X2808260Y894525D1*
X2806314Y890678D1*
Y886875D1*
X2808260Y883029D1*
X2812062Y877325D1*
X2831208Y858179D1*
X2804413D1*
X2790116Y888777D2*
Y890678D1*
X2788215Y894525D1*
X2786314Y896426D1*
X2782467Y898327D1*
X2774817D1*
X2771015Y896426D1*
X2769114Y894525D1*
X2767168Y890678D1*
Y886875D1*
X2769114Y883029D1*
X2772916Y877325D1*
X2792062Y858179D1*
X2765267D1*
X2733770Y898371D2*
Y867774D1*
X2735671Y862026D1*
X2737617Y860125D1*
X2741419Y858179D1*
X2745266D1*
X2749069Y860125D1*
X2750970Y862026D1*
X2752916Y867774D1*
Y871577D1*
X2721419Y884974D2*
Y865829D1*
X2719517Y860125D1*
X2715671Y858179D1*
X2709923D1*
X2706120Y860125D1*
X2700372Y865829D1*
Y884974D2*
Y858179D1*
X2688021Y898371D2*
Y858179D1*
X2673724Y884974D2*
X2662272Y858179D1*
X2666075Y850530D1*
X2669921Y846683D1*
X2673724Y844782D1*
X2675669D1*
X2650776Y884974D2*
X2662272Y858179D1*
X2636479Y888777D2*
Y890678D1*
X2634578Y894525D1*
X2632676Y896426D1*
X2628830Y898327D1*
X2621180D1*
X2617378Y896426D1*
X2615477Y894525D1*
X2613531Y890678D1*
Y886875D1*
X2615477Y883029D1*
X2619279Y877325D1*
X2638425Y858179D1*
X2611630D1*
X2587782Y898327D2*
X2593530Y896426D1*
X2597377Y890678D1*
X2599278Y881127D1*
Y875379D1*
X2597377Y865829D1*
X2593530Y860081D1*
X2587782Y858179D1*
X2583980D1*
X2578232Y860081D1*
X2574429Y865829D1*
X2572484Y875379D1*
Y881127D1*
X2574429Y890678D1*
X2578232Y896426D1*
X2583980Y898327D1*
X2587782D1*
X2574429Y890678D2*
X2597377Y865829D1*
X2558187Y888777D2*
Y890678D1*
X2556286Y894525D1*
X2554384Y896426D1*
X2550538Y898327D1*
X2542888D1*
X2539086Y896426D1*
X2537184Y894525D1*
X2535239Y890678D1*
Y886875D1*
X2537184Y883029D1*
X2540987Y877325D1*
X2560132Y858179D1*
X2533338D1*
X2517140Y898327D2*
X2496137D1*
X2507589Y883029D1*
X2501841D1*
X2498038Y881127D1*
X2496137Y879226D1*
X2494192Y873478D1*
Y869675D1*
X2496137Y863927D1*
X2499940Y860081D1*
X2505688Y858179D1*
X2511436D1*
X2517140Y860081D1*
X2519041Y862026D1*
X2520986Y865829D1*
X2423814Y898371D2*
Y867774D1*
X2425715Y862026D1*
X2427661Y860125D1*
X2431463Y858179D1*
X2435310D1*
X2439113Y860125D1*
X2441014Y862026D1*
X2442959Y867774D1*
Y871577D1*
X2401912Y884974D2*
X2405715Y883073D1*
X2409561Y879226D1*
X2411463Y873478D1*
Y869675D1*
X2409561Y863927D1*
X2405715Y860125D1*
X2401912Y858179D1*
X2396164D1*
X2392317Y860125D1*
X2388515Y863927D1*
X2386569Y869675D1*
Y873478D1*
X2388515Y879226D1*
X2392317Y883073D1*
X2396164Y884974D1*
X2401912D1*
X2374218Y898371D2*
Y858179D1*
Y877325D2*
X2368470Y883073D1*
X2364623Y884974D1*
X2358875D1*
X2355073Y883073D1*
X2353171Y877325D1*
Y858179D1*
X2340820Y884974D2*
Y858179D1*
Y877325D2*
X2335072Y883073D1*
X2331225Y884974D1*
X2325521D1*
X2321675Y883073D1*
X2319773Y877325D1*
Y858179D1*
X2243648Y898371D2*
X2268541D1*
Y858179D1*
Y879226D2*
X2253242D1*
X2229395Y862026D2*
X2231296Y860081D1*
X2229395Y858179D1*
X2227450Y860081D1*
X2229395Y862026D1*
X2164721Y898371D2*
X2168524Y896514D1*
X2172371Y892668D1*
X2174272Y888821D1*
X2176217Y883073D1*
Y873522D1*
X2174272Y867774D1*
X2172371Y863972D1*
X2168524Y860125D1*
X2164721Y858224D1*
X2157072D1*
X2153225Y860125D1*
X2149423Y863972D1*
X2147521Y867774D1*
X2145576Y873522D1*
Y883073D1*
X2147521Y888821D1*
X2149423Y892668D1*
X2153225Y896514D1*
X2157072Y898371D1*
X2164721D1*
X2158973Y865873D2*
X2147521Y854377D1*
X2133225Y884974D2*
Y865829D1*
X2131323Y860125D1*
X2127476Y858179D1*
X2121728D1*
X2117926Y860125D1*
X2112178Y865829D1*
Y884974D2*
Y858179D1*
X2099826Y898371D2*
X2097925Y896470D1*
X2095980Y898371D1*
X2097925Y900317D1*
X2099826Y898371D1*
X2097925Y884974D2*
Y858179D1*
X2083628Y884974D2*
Y858179D1*
Y877325D2*
X2077880Y883073D1*
X2074034Y884974D1*
X2068330D1*
X2064483Y883073D1*
X2062582Y877325D1*
Y858179D1*
X2050230Y884974D2*
Y858179D1*
Y877325D2*
X2044482Y883073D1*
X2040635Y884974D1*
X2034932D1*
X2031085Y883073D1*
X2029184Y877325D1*
Y858179D1*
X3058080Y968512D2*
Y928320D1*
Y962764D2*
X3061883Y966567D1*
X3065730Y968512D1*
X3071478D1*
X3075280Y966567D1*
X3079127Y962764D1*
X3081028Y957016D1*
Y953169D1*
X3079127Y947465D1*
X3075280Y943619D1*
X3071478Y941717D1*
X3065730D1*
X3061883Y943619D1*
X3058080Y947465D1*
X3020836Y981909D2*
X3045729D1*
Y941717D1*
Y962764D2*
X3030430D1*
X3008484Y968512D2*
Y949367D1*
X3006583Y943663D1*
X3002736Y941717D1*
X2996988D1*
X2993186Y943663D1*
X2987438Y949367D1*
Y968512D2*
Y941717D1*
X2975086Y968512D2*
Y941717D1*
Y960863D2*
X2969338Y966611D1*
X2965491Y968512D1*
X2959788D1*
X2955941Y966611D1*
X2954040Y960863D1*
Y941717D1*
X2941688Y981909D2*
Y941717D1*
X2922543Y968512D2*
X2941688Y949367D1*
X2934039Y957016D2*
X2920641Y941717D1*
X2908290Y957016D2*
X2885342D1*
Y960863D1*
X2887243Y964710D1*
X2889145Y966611D1*
X2892991Y968512D1*
X2898740D1*
X2902542Y966611D1*
X2906389Y962764D1*
X2908290Y957016D1*
Y953213D1*
X2906389Y947465D1*
X2902542Y943663D1*
X2898740Y941717D1*
X2892991D1*
X2889145Y943663D1*
X2885342Y947465D1*
X2872991Y968512D2*
Y941717D1*
Y960863D2*
X2867243Y966611D1*
X2863396Y968512D1*
X2857692D1*
X2853845Y966611D1*
X2851944Y960863D1*
Y941717D1*
X2773917Y976161D2*
X2777720Y980008D1*
X2783468Y981909D1*
X2791117D1*
X2796865Y980008D1*
X2800712Y976161D1*
Y972359D1*
X2798766Y968512D1*
X2796865Y966611D1*
X2793063Y964710D1*
X2781567Y960863D1*
X2777720Y958962D1*
X2775819Y957016D1*
X2773917Y953213D1*
Y947465D1*
X2777720Y943663D1*
X2783468Y941717D1*
X2791117D1*
X2796865Y943663D1*
X2800712Y947465D1*
X2759620Y968512D2*
X2748169Y941717D1*
X2751971Y934068D1*
X2755818Y930221D1*
X2759620Y928320D1*
X2761566D1*
X2736673Y968512D2*
X2748169Y941717D1*
X2703274Y962764D2*
X2705176Y966611D1*
X2710924Y968512D1*
X2716672D1*
X2722420Y966611D1*
X2724321Y962764D1*
X2722420Y958962D1*
X2718573Y957016D1*
X2709023Y955115D1*
X2705176Y953213D1*
X2703274Y949367D1*
Y947465D1*
X2705176Y943663D1*
X2710924Y941717D1*
X2716672D1*
X2722420Y943663D1*
X2724321Y947465D1*
X2685175Y981909D2*
Y949367D1*
X2683274Y943663D1*
X2679427Y941717D1*
X2675624D1*
X2690923Y968512D2*
X2677526D1*
X2663273Y957016D2*
X2640325D1*
Y960863D1*
X2642226Y964710D1*
X2644128Y966611D1*
X2647974Y968512D1*
X2653723D1*
X2657525Y966611D1*
X2661372Y962764D1*
X2663273Y957016D1*
Y953213D1*
X2661372Y947465D1*
X2657525Y943663D1*
X2653723Y941717D1*
X2647974D1*
X2644128Y943663D1*
X2640325Y947465D1*
X2627974Y968512D2*
Y941717D1*
Y960863D2*
X2622226Y966611D1*
X2618379Y968512D1*
X2612675D1*
X2608828Y966611D1*
X2606927Y960863D1*
Y941717D1*
Y960863D2*
X2601179Y966611D1*
X2597332Y968512D1*
X2591629D1*
X2587782Y966611D1*
X2585836Y960863D1*
Y941717D1*
X2552438Y962764D2*
X2554340Y966611D1*
X2560088Y968512D1*
X2565836D1*
X2571584Y966611D1*
X2573485Y962764D1*
X2571584Y958962D1*
X2567737Y957016D1*
X2558186Y955115D1*
X2554340Y953213D1*
X2552438Y949367D1*
Y947465D1*
X2554340Y943663D1*
X2560088Y941717D1*
X2565836D1*
X2571584Y943663D1*
X2573485Y947465D1*
X3387260Y617009D2*
Y576817D1*
X3370016D1*
X3364267Y578763D1*
X3362366Y580664D1*
X3360465Y584466D1*
Y590214D1*
X3362366Y594061D1*
X3364267Y595963D1*
X3370016Y597864D1*
X3364267Y599809D1*
X3362366Y601711D1*
X3360465Y605513D1*
Y609360D1*
X3362366Y613162D1*
X3364267Y615108D1*
X3370016Y617009D1*
X3387260D1*
Y597864D2*
X3370016D1*
X3325166Y603612D2*
Y576817D1*
Y597864D2*
X3328968Y601711D1*
X3332815Y603612D1*
X3338519D1*
X3342366Y601711D1*
X3346168Y597864D1*
X3348114Y592116D1*
Y588313D1*
X3346168Y582565D1*
X3342366Y578763D1*
X3338519Y576817D1*
X3332815D1*
X3328968Y578763D1*
X3325166Y582565D1*
X3291768Y597864D2*
X3293669Y601711D1*
X3299417Y603612D1*
X3305165D1*
X3310913Y601711D1*
X3312814Y597864D1*
X3310913Y594061D1*
X3307066Y592116D1*
X3297516Y590214D1*
X3293669Y588313D1*
X3291768Y584466D1*
Y582565D1*
X3293669Y578763D1*
X3299417Y576817D1*
X3305165D1*
X3310913Y578763D1*
X3312814Y582565D1*
X3279416Y592116D2*
X3256468D1*
Y595963D1*
X3258370Y599809D1*
X3260271Y601711D1*
X3264118Y603612D1*
X3269866D1*
X3273668Y601711D1*
X3277515Y597864D1*
X3279416Y592116D1*
Y588313D1*
X3277515Y582565D1*
X3273668Y578763D1*
X3269866Y576817D1*
X3264118D1*
X3260271Y578763D1*
X3256468Y582565D1*
X3221169Y617009D2*
Y576817D1*
Y597864D2*
X3224972Y601711D1*
X3228818Y603612D1*
X3234566D1*
X3238369Y601711D1*
X3242216Y597864D1*
X3244117Y592116D1*
Y588313D1*
X3242216Y582565D1*
X3238369Y578763D1*
X3234566Y576817D1*
X3228818D1*
X3224972Y578763D1*
X3221169Y582565D1*
X3160386Y603612D2*
X3164189Y601711D1*
X3168036Y597864D1*
X3169937Y592116D1*
Y588313D1*
X3168036Y582565D1*
X3164189Y578763D1*
X3160386Y576817D1*
X3154638D1*
X3150791Y578763D1*
X3146989Y582565D1*
X3145043Y588313D1*
Y592116D1*
X3146989Y597864D1*
X3150791Y601711D1*
X3154638Y603612D1*
X3160386D1*
X3132692D2*
Y576817D1*
Y595963D2*
X3126944Y601711D1*
X3123097Y603612D1*
X3117393D1*
X3113547Y601711D1*
X3111645Y595963D1*
Y576817D1*
X3050818Y616965D2*
X3060413Y605469D1*
X3048917Y615064D1*
X3050818Y616965D1*
X3034620Y603612D2*
X3023168Y576817D1*
X3026971Y569168D1*
X3030818Y565321D1*
X3034620Y563420D1*
X3036566D1*
X3011672Y603612D2*
X3023168Y576817D1*
X2999321Y592116D2*
X2976373D1*
Y595963D1*
X2978274Y599809D1*
X2980176Y601711D1*
X2984022Y603612D1*
X2989770D1*
X2993573Y601711D1*
X2997420Y597864D1*
X2999321Y592116D1*
Y588313D1*
X2997420Y582565D1*
X2993573Y578763D1*
X2989770Y576817D1*
X2984022D1*
X2980176Y578763D1*
X2976373Y582565D1*
X2958274Y617009D2*
Y584466D1*
X2956372Y578763D1*
X2952526Y576817D1*
X2948723D1*
X2964022Y603612D2*
X2950624D1*
X2874543D2*
Y576817D1*
Y597864D2*
X2878346Y601711D1*
X2882192Y603612D1*
X2887896D1*
X2891743Y601711D1*
X2895545Y597864D1*
X2897491Y592116D1*
Y588313D1*
X2895545Y582565D1*
X2891743Y578763D1*
X2887896Y576817D1*
X2882192D1*
X2878346Y578763D1*
X2874543Y582565D1*
X2862192Y603612D2*
Y576817D1*
Y595963D2*
X2856444Y601711D1*
X2852597Y603612D1*
X2846893D1*
X2843046Y601711D1*
X2841145Y595963D1*
Y576817D1*
X2819243Y603612D2*
X2823045Y601711D1*
X2826892Y597864D1*
X2828794Y592116D1*
Y588313D1*
X2826892Y582565D1*
X2823045Y578763D1*
X2819243Y576817D1*
X2813495D1*
X2809648Y578763D1*
X2805846Y582565D1*
X2803900Y588313D1*
Y592116D1*
X2805846Y597864D1*
X2809648Y601711D1*
X2813495Y603612D1*
X2819243D1*
X2785801Y617009D2*
Y584466D1*
X2783899Y578763D1*
X2780053Y576817D1*
X2776250D1*
X2791549Y603612D2*
X2778151D1*
X2763899Y617009D2*
Y576817D1*
Y595963D2*
X2758151Y601711D1*
X2754304Y603612D1*
X2748556D1*
X2744753Y601711D1*
X2742852Y595963D1*
Y576817D1*
X2730501Y592116D2*
X2707553D1*
Y595963D1*
X2709454Y599809D1*
X2711355Y601711D1*
X2715202Y603612D1*
X2720950D1*
X2724753Y601711D1*
X2728599Y597864D1*
X2730501Y592116D1*
Y588313D1*
X2728599Y582565D1*
X2724753Y578763D1*
X2720950Y576817D1*
X2715202D1*
X2711355Y578763D1*
X2707553Y582565D1*
X2695201Y603612D2*
Y576817D1*
Y592116D2*
X2693256Y597864D1*
X2689453Y601711D1*
X2685607Y603612D1*
X2679859D1*
X2628626Y617009D2*
Y576817D1*
X2615229D1*
X2609481Y578763D1*
X2605634Y582565D1*
X2603733Y586412D1*
X2601832Y592116D1*
Y601711D1*
X2603733Y607459D1*
X2605634Y611261D1*
X2609481Y615108D1*
X2615229Y617009D1*
X2628626D1*
X2589480D2*
Y576817D1*
X2577129Y617009D2*
X2561830Y597864D1*
Y576817D1*
X2546532Y617009D2*
X2561830Y597864D1*
X2466604Y607459D2*
X2468505Y611261D1*
X2472352Y615108D1*
X2476154Y617009D1*
X2483803D1*
X2487650Y615108D1*
X2491453Y611261D1*
X2493398Y607459D1*
X2495300Y601711D1*
Y592116D1*
X2493398Y586412D1*
X2491453Y582565D1*
X2487650Y578763D1*
X2483803Y576817D1*
X2476154D1*
X2472352Y578763D1*
X2468505Y582565D1*
X2466604Y586412D1*
Y592116D1*
X2476154D1*
X2454252Y595963D2*
X2437008D1*
X2431304Y597864D1*
X2429359Y599809D1*
X2427458Y603612D1*
Y609360D1*
X2429359Y613162D1*
X2431304Y615108D1*
X2437008Y617009D1*
X2454252D1*
Y576817D1*
X2388311Y611261D2*
X2392114Y615108D1*
X2397862Y617009D1*
X2405511D1*
X2411259Y615108D1*
X2415106Y611261D1*
Y607459D1*
X2413161Y603612D1*
X2411259Y601711D1*
X2407457Y599809D1*
X2395961Y595963D1*
X2392114Y594061D1*
X2390213Y592116D1*
X2388311Y588313D1*
Y582565D1*
X2392114Y578763D1*
X2397862Y576817D1*
X2405511D1*
X2411259Y578763D1*
X2415106Y582565D1*
X2375960Y617009D2*
Y576817D1*
X2362563D1*
X2356815Y578763D1*
X2352968Y582565D1*
X2351067Y586412D1*
X2349165Y592116D1*
Y601711D1*
X2351067Y607459D1*
X2352968Y611261D1*
X2356815Y615108D1*
X2362563Y617009D1*
X2375960D1*
X2325318D2*
X2329165Y615108D1*
X2332967Y611261D1*
X2334913Y607459D1*
X2336814Y601711D1*
Y592116D1*
X2334913Y586412D1*
X2332967Y582565D1*
X2329165Y578763D1*
X2325318Y576817D1*
X2317669D1*
X2313866Y578763D1*
X2310019Y582565D1*
X2308118Y586412D1*
X2306217Y592116D1*
Y601711D1*
X2308118Y607459D1*
X2310019Y611261D1*
X2313866Y615108D1*
X2317669Y617009D1*
X2325318D1*
X2284271Y616965D2*
X2293865Y605469D1*
X2282369Y615064D1*
X2284271Y616965D1*
X2231137Y617009D2*
Y576817D1*
Y597864D2*
X2227290Y601711D1*
X2223488Y603612D1*
X2217740D1*
X2213937Y601711D1*
X2210091Y597864D1*
X2208189Y592116D1*
Y588313D1*
X2210091Y582565D1*
X2213937Y578763D1*
X2217740Y576817D1*
X2223488D1*
X2227290Y578763D1*
X2231137Y582565D1*
X2193892Y603612D2*
X2182441Y576817D1*
X2186243Y569168D1*
X2190090Y565321D1*
X2193892Y563420D1*
X2195838D1*
X2170944Y603612D2*
X2182441Y576817D1*
X2089071D2*
X2104414Y617009D1*
X2119712Y576817D1*
X2113964Y590214D2*
X2094819D1*
X2076719Y603612D2*
Y576817D1*
Y595963D2*
X2070971Y601711D1*
X2067125Y603612D1*
X2061421D1*
X2057574Y601711D1*
X2055673Y595963D1*
Y576817D1*
X2020374Y617009D2*
Y576817D1*
Y597864D2*
X2024176Y601711D1*
X2028023Y603612D1*
X2033771D1*
X2037573Y601711D1*
X2041420Y597864D1*
X2043321Y592116D1*
Y588313D1*
X2041420Y582565D1*
X2037573Y578763D1*
X2033771Y576817D1*
X2028023D1*
X2024176Y578763D1*
X2020374Y582565D1*
X2008022Y603612D2*
Y576817D1*
Y592116D2*
X2006077Y597864D1*
X2002274Y601711D1*
X1998427Y603612D1*
X1992679D1*
X1980328Y592116D2*
X1957380D1*
Y595963D1*
X1959281Y599809D1*
X1961183Y601711D1*
X1965029Y603612D1*
X1970777D1*
X1974580Y601711D1*
X1978427Y597864D1*
X1980328Y592116D1*
Y588313D1*
X1978427Y582565D1*
X1974580Y578763D1*
X1970777Y576817D1*
X1965029D1*
X1961183Y578763D1*
X1957380Y582565D1*
X1945029Y603612D2*
X1937379Y576817D1*
X1929730Y603612D1*
X1922081Y576817D1*
X1914431Y603612D1*
X1902080Y617009D2*
Y576817D1*
X1884836D1*
X1879088Y578763D1*
X1877187Y580664D1*
X1875285Y584466D1*
Y590214D1*
X1877187Y594061D1*
X1879088Y595963D1*
X1884836Y597864D1*
X1879088Y599809D1*
X1877187Y601711D1*
X1875285Y605513D1*
Y609360D1*
X1877187Y613162D1*
X1879088Y615108D1*
X1884836Y617009D1*
X1902080D1*
Y597864D2*
X1884836D1*
X1834238Y607459D2*
X1836139Y611261D1*
X1839986Y615108D1*
X1843789Y617009D1*
X1851438D1*
X1855285Y615108D1*
X1859087Y611261D1*
X1861033Y607459D1*
X1862934Y601711D1*
Y592116D1*
X1861033Y586412D1*
X1859087Y582565D1*
X1855285Y578763D1*
X1851438Y576817D1*
X1843789D1*
X1839986Y578763D1*
X1836139Y582565D1*
X1834238Y586412D1*
X1795092Y617009D2*
Y576817D1*
X1821887Y617009D1*
Y576817D1*
X3886676Y544185D2*
Y503993D1*
Y523138D2*
X3880928Y528886D1*
X3877081Y530787D1*
X3871333D1*
X3867530Y528886D1*
X3865629Y523138D1*
Y503993D1*
X3847530Y544185D2*
Y511642D1*
X3845628Y505938D1*
X3841782Y503993D1*
X3837979D1*
X3853278Y530787D2*
X3839880D1*
X3819880Y544185D2*
Y511642D1*
X3817978Y505938D1*
X3814132Y503993D1*
X3810329D1*
X3825628Y530787D2*
X3812230D1*
X3797978D2*
Y490595D1*
Y525039D2*
X3794131Y528842D1*
X3790328Y530787D1*
X3784580D1*
X3780734Y528842D1*
X3776931Y525039D1*
X3774986Y519291D1*
Y515444D1*
X3776931Y509741D1*
X3780734Y505894D1*
X3784580Y503993D1*
X3790328D1*
X3794131Y505894D1*
X3797978Y509741D1*
X3741588Y525039D2*
X3743489Y528886D1*
X3749237Y530787D1*
X3754985D1*
X3760733Y528886D1*
X3762634Y525039D1*
X3760733Y521237D1*
X3756886Y519291D1*
X3747336Y517390D1*
X3743489Y515489D1*
X3741588Y511642D1*
Y509741D1*
X3743489Y505938D1*
X3749237Y503993D1*
X3754985D1*
X3760733Y505938D1*
X3762634Y509741D1*
X3727291Y530787D2*
X3729236Y528842D1*
X3727291Y526940D1*
X3725389Y528842D1*
X3727291Y530787D1*
Y507839D2*
X3729236Y505894D1*
X3727291Y503993D1*
X3725389Y505894D1*
X3727291Y507839D1*
X3713038Y503993D2*
X3686243Y544140D1*
X3673892Y503993D2*
X3647097Y544140D1*
X3634746Y530787D2*
X3627097Y503993D1*
X3619447Y530787D1*
X3611798Y503993D1*
X3604149Y530787D1*
X3591797D2*
X3584148Y503993D1*
X3576499Y530787D1*
X3568849Y503993D1*
X3561200Y530787D1*
X3548849D2*
X3541199Y503993D1*
X3533550Y530787D1*
X3525901Y503993D1*
X3518251Y530787D1*
X3503999Y507839D2*
X3505900Y505894D1*
X3503999Y503993D1*
X3502053Y505894D1*
X3503999Y507839D1*
X3489702Y519291D2*
X3466754D1*
Y523138D1*
X3468655Y526985D1*
X3470556Y528886D1*
X3474403Y530787D1*
X3480151D1*
X3483954Y528886D1*
X3487801Y525039D1*
X3489702Y519291D1*
Y515489D1*
X3487801Y509741D1*
X3483954Y505938D1*
X3480151Y503993D1*
X3474403D1*
X3470556Y505938D1*
X3466754Y509741D1*
X3454403Y519291D2*
X3431455D1*
Y523138D1*
X3433356Y526985D1*
X3435257Y528886D1*
X3439104Y530787D1*
X3444852D1*
X3448655Y528886D1*
X3452501Y525039D1*
X3454403Y519291D1*
Y515489D1*
X3452501Y509741D1*
X3448655Y505938D1*
X3444852Y503993D1*
X3439104D1*
X3435257Y505938D1*
X3431455Y509741D1*
X3419103Y530787D2*
X3407607Y503993D1*
X3396155Y530787D1*
X3383804Y544185D2*
Y503993D1*
Y525039D2*
X3379957Y528886D1*
X3376155Y530787D1*
X3370407D1*
X3366604Y528886D1*
X3362757Y525039D1*
X3360856Y519291D1*
Y515489D1*
X3362757Y509741D1*
X3366604Y505938D1*
X3370407Y503993D1*
X3376155D1*
X3379957Y505938D1*
X3383804Y509741D1*
X3348505Y544185D2*
Y503993D1*
X3326603Y530787D2*
X3330405Y528886D1*
X3334252Y525039D1*
X3336153Y519291D1*
Y515489D1*
X3334252Y509741D1*
X3330405Y505938D1*
X3326603Y503993D1*
X3320855D1*
X3317008Y505938D1*
X3313205Y509741D1*
X3311260Y515489D1*
Y519291D1*
X3313205Y525039D1*
X3317008Y528886D1*
X3320855Y530787D1*
X3326603D1*
X3275961Y528886D2*
Y498244D1*
X3277862Y492541D1*
X3279763Y490595D1*
X3283610Y488694D1*
X3289358D1*
X3293160Y490595D1*
X3275961Y523138D2*
X3279763Y526940D1*
X3283610Y528886D1*
X3289358D1*
X3293160Y526940D1*
X3297007Y523138D1*
X3298908Y517390D1*
Y513543D1*
X3297007Y507839D1*
X3293160Y503993D1*
X3289358Y502091D1*
X3283610D1*
X3279763Y503993D1*
X3275961Y507839D1*
X3261708D2*
X3263609Y505894D1*
X3261708Y503993D1*
X3259762Y505894D1*
X3261708Y507839D1*
X3224419Y525039D2*
X3228266Y528886D1*
X3232112Y530787D1*
X3237816D1*
X3241663Y528886D1*
X3245465Y525039D1*
X3247411Y519291D1*
Y515489D1*
X3245465Y509741D1*
X3241663Y505938D1*
X3237816Y503993D1*
X3232112D1*
X3228266Y505938D1*
X3224419Y509741D1*
X3202517Y530787D2*
X3206319Y528886D1*
X3210166Y525039D1*
X3212067Y519291D1*
Y515489D1*
X3210166Y509741D1*
X3206319Y505938D1*
X3202517Y503993D1*
X3196769D1*
X3192922Y505938D1*
X3189120Y509741D1*
X3187174Y515489D1*
Y519291D1*
X3189120Y525039D1*
X3192922Y528886D1*
X3196769Y530787D1*
X3202517D1*
X3174823D2*
Y503993D1*
Y523138D2*
X3169075Y528886D1*
X3165228Y530787D1*
X3159524D1*
X3155677Y528886D1*
X3153776Y523138D1*
Y503993D1*
Y523138D2*
X3148028Y528886D1*
X3144181Y530787D1*
X3138477D1*
X3134631Y528886D1*
X3132685Y523138D1*
Y503993D1*
X3120334D2*
X3093539Y544140D1*
X3065889Y544185D2*
X3069692D1*
X3073538Y542283D1*
X3075440Y536535D1*
Y503993D1*
X3081188Y530787D2*
X3067790D1*
X3043987D2*
X3047790Y528886D1*
X3051636Y525039D1*
X3053538Y519291D1*
Y515489D1*
X3051636Y509741D1*
X3047790Y505938D1*
X3043987Y503993D1*
X3038239D1*
X3034392Y505938D1*
X3030590Y509741D1*
X3028644Y515489D1*
Y519291D1*
X3030590Y525039D1*
X3034392Y528886D1*
X3038239Y530787D1*
X3043987D1*
X3016293D2*
Y503993D1*
Y519291D2*
X3014347Y525039D1*
X3010545Y528886D1*
X3006698Y530787D1*
X3000950D1*
X2988599D2*
Y511642D1*
X2986697Y505938D1*
X2982851Y503993D1*
X2977103D1*
X2973300Y505938D1*
X2967552Y511642D1*
Y530787D2*
Y503993D1*
X2955201Y530787D2*
Y503993D1*
Y523138D2*
X2949453Y528886D1*
X2945606Y530787D1*
X2939902D1*
X2936055Y528886D1*
X2934154Y523138D1*
Y503993D1*
Y523138D2*
X2928406Y528886D1*
X2924559Y530787D1*
X2918855D1*
X2915009Y528886D1*
X2913063Y523138D1*
Y503993D1*
X2900712D2*
X2873917Y544140D1*
X2861566Y530787D2*
Y490595D1*
Y525039D2*
X2857719Y528842D1*
X2853916Y530787D1*
X2848168D1*
X2844322Y528842D1*
X2840519Y525039D1*
X2838574Y519291D1*
Y515444D1*
X2840519Y509741D1*
X2844322Y505894D1*
X2848168Y503993D1*
X2853916D1*
X2857719Y505894D1*
X2861566Y509741D1*
X2826222Y530787D2*
Y503993D1*
Y519291D2*
X2824277Y525039D1*
X2820474Y528886D1*
X2816627Y530787D1*
X2810879D1*
X2788977D2*
X2792780Y528886D1*
X2796627Y525039D1*
X2798528Y519291D1*
Y515489D1*
X2796627Y509741D1*
X2792780Y505938D1*
X2788977Y503993D1*
X2783229D1*
X2779383Y505938D1*
X2775580Y509741D1*
X2773635Y515489D1*
Y519291D1*
X2775580Y525039D1*
X2779383Y528886D1*
X2783229Y530787D1*
X2788977D1*
X2753634Y544229D2*
X2751688Y542327D1*
X2749787Y544229D1*
X2751688Y546130D1*
X2753634Y544229D1*
X2751688Y530831D2*
Y498289D1*
X2753634Y492541D1*
X2757436Y490639D1*
X2761283D1*
X2737436Y519291D2*
X2714488D1*
Y523138D1*
X2716389Y526985D1*
X2718290Y528886D1*
X2722137Y530787D1*
X2727885D1*
X2731688Y528886D1*
X2735534Y525039D1*
X2737436Y519291D1*
Y515489D1*
X2735534Y509741D1*
X2731688Y505938D1*
X2727885Y503993D1*
X2722137D1*
X2718290Y505938D1*
X2714488Y509741D1*
X2679144Y525039D2*
X2682991Y528886D1*
X2686838Y530787D1*
X2692542D1*
X2696388Y528886D1*
X2700191Y525039D1*
X2702136Y519291D1*
Y515489D1*
X2700191Y509741D1*
X2696388Y505938D1*
X2692542Y503993D1*
X2686838D1*
X2682991Y505938D1*
X2679144Y509741D1*
X2661045Y544185D2*
Y511642D1*
X2659144Y505938D1*
X2655297Y503993D1*
X2651494D1*
X2666793Y530787D2*
X2653396D1*
X2618096Y525039D2*
X2619997Y528886D1*
X2625746Y530787D1*
X2631494D1*
X2637242Y528886D1*
X2639143Y525039D1*
X2637242Y521237D1*
X2633395Y519291D1*
X2623844Y517390D1*
X2619997Y515489D1*
X2618096Y511642D1*
Y509741D1*
X2619997Y505938D1*
X2625746Y503993D1*
X2631494D1*
X2637242Y505938D1*
X2639143Y509741D1*
X2605745Y503993D2*
X2578950Y544140D1*
X2564653Y530787D2*
X2553201Y503993D1*
X2557004Y496343D1*
X2560851Y492496D1*
X2564653Y490595D1*
X2566599D1*
X2541705Y530787D2*
X2553201Y503993D1*
X2529354Y519291D2*
X2506406D1*
Y523138D1*
X2508307Y526985D1*
X2510209Y528886D1*
X2514055Y530787D1*
X2519803D1*
X2523606Y528886D1*
X2527453Y525039D1*
X2529354Y519291D1*
Y515489D1*
X2527453Y509741D1*
X2523606Y505938D1*
X2519803Y503993D1*
X2514055D1*
X2510209Y505938D1*
X2506406Y509741D1*
X2488307Y544185D2*
Y511642D1*
X2486405Y505938D1*
X2482559Y503993D1*
X2478756D1*
X2494055Y530787D2*
X2480657D1*
X2466405Y524066D2*
X2444297D1*
X2408998Y530787D2*
Y503993D1*
Y525039D2*
X2412800Y528886D1*
X2416647Y530787D1*
X2422351D1*
X2426197Y528886D1*
X2430000Y525039D1*
X2431945Y519291D1*
Y515489D1*
X2430000Y509741D1*
X2426197Y505938D1*
X2422351Y503993D1*
X2416647D1*
X2412800Y505938D1*
X2408998Y509741D1*
X2396646Y530787D2*
Y503993D1*
Y523138D2*
X2390898Y528886D1*
X2387051Y530787D1*
X2381348D1*
X2377501Y528886D1*
X2375599Y523138D1*
Y503993D1*
X2353697Y530787D2*
X2357500Y528886D1*
X2361347Y525039D1*
X2363248Y519291D1*
Y515489D1*
X2361347Y509741D1*
X2357500Y505938D1*
X2353697Y503993D1*
X2347949D1*
X2344103Y505938D1*
X2340300Y509741D1*
X2338355Y515489D1*
Y519291D1*
X2340300Y525039D1*
X2344103Y528886D1*
X2347949Y530787D1*
X2353697D1*
X2320255Y544185D2*
Y511642D1*
X2318354Y505938D1*
X2314507Y503993D1*
X2310705D1*
X2326003Y530787D2*
X2312606D1*
X2298353Y544185D2*
Y503993D1*
Y523138D2*
X2292605Y528886D1*
X2288758Y530787D1*
X2283010D1*
X2279208Y528886D1*
X2277307Y523138D1*
Y503993D1*
X2264955Y519291D2*
X2242007D1*
Y523138D1*
X2243909Y526985D1*
X2245810Y528886D1*
X2249657Y530787D1*
X2255405D1*
X2259207Y528886D1*
X2263054Y525039D1*
X2264955Y519291D1*
Y515489D1*
X2263054Y509741D1*
X2259207Y505938D1*
X2255405Y503993D1*
X2249657D1*
X2245810Y505938D1*
X2242007Y509741D1*
X2229656Y530787D2*
Y503993D1*
Y519291D2*
X2227710Y525039D1*
X2223908Y528886D1*
X2220061Y530787D1*
X2214313D1*
X2201962Y524066D2*
X2179854D1*
X2144555Y544185D2*
Y503993D1*
Y525039D2*
X2148357Y528886D1*
X2152204Y530787D1*
X2157952D1*
X2161754Y528886D1*
X2165601Y525039D1*
X2167502Y519291D1*
Y515489D1*
X2165601Y509741D1*
X2161754Y505938D1*
X2157952Y503993D1*
X2152204D1*
X2148357Y505938D1*
X2144555Y509741D1*
X2132203Y544185D2*
X2130302Y542283D1*
X2128356Y544185D1*
X2130302Y546130D1*
X2132203Y544185D1*
X2130302Y530787D2*
Y503993D1*
X2114060Y530787D2*
X2102608Y503993D1*
X2106410Y496343D1*
X2110257Y492496D1*
X2114060Y490595D1*
X2116005D1*
X2091112Y530787D2*
X2102608Y503993D1*
X2078760Y524066D2*
X2056652D1*
X2021353Y528886D2*
Y498244D1*
X2023254Y492541D1*
X2025156Y490595D1*
X2029002Y488694D1*
X2034750D1*
X2038553Y490595D1*
X2021353Y523138D2*
X2025156Y526940D1*
X2029002Y528886D1*
X2034750D1*
X2038553Y526940D1*
X2042400Y523138D1*
X2044301Y517390D1*
Y513543D1*
X2042400Y507839D1*
X2038553Y503993D1*
X2034750Y502091D1*
X2029002D1*
X2025156Y503993D1*
X2021353Y507839D1*
X2009002Y530787D2*
Y490595D1*
Y525039D2*
X2005155Y528842D1*
X2001352Y530787D1*
X1995604D1*
X1991758Y528842D1*
X1987955Y525039D1*
X1986010Y519291D1*
Y515444D1*
X1987955Y509741D1*
X1991758Y505894D1*
X1995604Y503993D1*
X2001352D1*
X2005155Y505894D1*
X2009002Y509741D1*
X1952612Y525039D2*
X1954513Y528886D1*
X1960261Y530787D1*
X1966009D1*
X1971757Y528886D1*
X1973658Y525039D1*
X1971757Y521237D1*
X1967910Y519291D1*
X1958360Y517390D1*
X1954513Y515489D1*
X1952612Y511642D1*
Y509741D1*
X1954513Y505938D1*
X1960261Y503993D1*
X1966009D1*
X1971757Y505938D1*
X1973658Y509741D1*
X1917312Y544185D2*
Y503993D1*
Y525039D2*
X1921115Y528886D1*
X1924962Y530787D1*
X1930710D1*
X1934512Y528886D1*
X1938359Y525039D1*
X1940260Y519291D1*
Y515489D1*
X1938359Y509741D1*
X1934512Y505938D1*
X1930710Y503993D1*
X1924962D1*
X1921115Y505938D1*
X1917312Y509741D1*
X1895410Y530787D2*
X1899213Y528886D1*
X1903060Y525039D1*
X1904961Y519291D1*
Y515489D1*
X1903060Y509741D1*
X1899213Y505938D1*
X1895410Y503993D1*
X1889662D1*
X1885815Y505938D1*
X1882013Y509741D1*
X1880067Y515489D1*
Y519291D1*
X1882013Y525039D1*
X1885815Y528886D1*
X1889662Y530787D1*
X1895410D1*
X1867716Y524066D2*
X1845608D1*
X1831311Y530787D2*
X1819860Y503993D1*
X1823662Y496343D1*
X1827509Y492496D1*
X1831311Y490595D1*
X1833257D1*
X1808363Y530787D2*
X1819860Y503993D1*
X1796012Y519291D2*
X1773064D1*
Y523138D1*
X1774965Y526985D1*
X1776867Y528886D1*
X1780713Y530787D1*
X1786461D1*
X1790264Y528886D1*
X1794111Y525039D1*
X1796012Y519291D1*
Y515489D1*
X1794111Y509741D1*
X1790264Y505938D1*
X1786461Y503993D1*
X1780713D1*
X1776867Y505938D1*
X1773064Y509741D1*
X1739666Y525039D2*
X1741567Y528886D1*
X1747315Y530787D1*
X1753063D1*
X1758811Y528886D1*
X1760713Y525039D1*
X1758811Y521237D1*
X1754965Y519291D1*
X1745414Y517390D1*
X1741567Y515489D1*
X1739666Y511642D1*
Y509741D1*
X1741567Y505938D1*
X1747315Y503993D1*
X1753063D1*
X1758811Y505938D1*
X1760713Y509741D1*
X1727315Y524066D2*
X1705207D1*
X1669908Y530787D2*
Y503993D1*
Y525039D2*
X1673710Y528886D1*
X1677557Y530787D1*
X1683261D1*
X1687107Y528886D1*
X1690910Y525039D1*
X1692856Y519291D1*
Y515489D1*
X1690910Y509741D1*
X1687107Y505938D1*
X1683261Y503993D1*
X1677557D1*
X1673710Y505938D1*
X1669908Y509741D1*
X1657556Y530787D2*
Y503993D1*
Y523138D2*
X1651808Y528886D1*
X1647961Y530787D1*
X1642258D1*
X1638411Y528886D1*
X1636510Y523138D1*
Y503993D1*
X1614608Y530787D2*
X1618410Y528886D1*
X1622257Y525039D1*
X1624158Y519291D1*
Y515489D1*
X1622257Y509741D1*
X1618410Y505938D1*
X1614608Y503993D1*
X1608860D1*
X1605013Y505938D1*
X1601210Y509741D1*
X1599265Y515489D1*
Y519291D1*
X1601210Y525039D1*
X1605013Y528886D1*
X1608860Y530787D1*
X1614608D1*
X1581165Y544185D2*
Y511642D1*
X1579264Y505938D1*
X1575417Y503993D1*
X1571615D1*
X1586913Y530787D2*
X1573516D1*
X1559263Y544185D2*
Y503993D1*
Y523138D2*
X1553515Y528886D1*
X1549669Y530787D1*
X1543921D1*
X1540118Y528886D1*
X1538217Y523138D1*
Y503993D1*
X1525865Y519291D2*
X1502917D1*
Y523138D1*
X1504819Y526985D1*
X1506720Y528886D1*
X1510567Y530787D1*
X1516315D1*
X1520117Y528886D1*
X1523964Y525039D1*
X1525865Y519291D1*
Y515489D1*
X1523964Y509741D1*
X1520117Y505938D1*
X1516315Y503993D1*
X1510567D1*
X1506720Y505938D1*
X1502917Y509741D1*
X1490566Y530787D2*
Y503993D1*
Y519291D2*
X1488621Y525039D1*
X1484818Y528886D1*
X1480971Y530787D1*
X1475223D1*
X1462872Y524066D2*
X1440764D1*
X1418862Y530787D2*
X1422665Y528886D1*
X1426511Y525039D1*
X1428413Y519291D1*
Y515489D1*
X1426511Y509741D1*
X1422665Y505938D1*
X1418862Y503993D1*
X1413114D1*
X1409267Y505938D1*
X1405465Y509741D1*
X1403519Y515489D1*
Y519291D1*
X1405465Y525039D1*
X1409267Y528886D1*
X1413114Y530787D1*
X1418862D1*
X1391168D2*
Y503993D1*
Y523138D2*
X1385420Y528886D1*
X1381573Y530787D1*
X1375869D1*
X1372022Y528886D1*
X1370121Y523138D1*
Y503993D1*
X1357770Y519291D2*
X1334822D1*
Y523138D1*
X1336723Y526985D1*
X1338624Y528886D1*
X1342471Y530787D1*
X1348219D1*
X1352022Y528886D1*
X1355868Y525039D1*
X1357770Y519291D1*
Y515489D1*
X1355868Y509741D1*
X1352022Y505938D1*
X1348219Y503993D1*
X1342471D1*
X1338624Y505938D1*
X1334822Y509741D1*
X1322470Y503993D2*
X1295676Y544140D1*
M02*
