M48
INCH
T01C0.019
T02C0.0291
T03C0.0315
T04C0.0327
T05C0.034
T06C0.035
T07C0.0394
T08C0.04
T09C0.0425
T10C0.078
T11C0.0807
T12C0.125
%
T01
X+021125Y+023038
X+014185Y+016147
T02
X+031688Y+021848
X+031688Y+022848
X+031688Y+023848
X+031688Y+024848
X+031688Y+025848
X+031688Y+026848
X+031688Y+027848
X+028562Y+027848
X+028562Y+026848
X+028562Y+025848
X+028562Y+024848
X+028562Y+023848
X+028562Y+022848
X+028562Y+021848
T03
X+013625Y+015348
X+012625Y+015348
X+015125Y+016848
X+016125Y+013848
X+017125Y+013848
X+018125Y+013848
X+019125Y+013848
X+021625Y+013848
X+021625Y+012848
X+024375Y+015098
X+023125Y+017848
X+022125Y+017848
X+019125Y+016848
X+027625Y+017848
X+028125Y+015098
X+031875Y+015098
X+031625Y+017848
X+030625Y+019848
X+029625Y+019848
X+026625Y+021022
X+026625Y+025022
X+023125Y+028348
X+023125Y+029848
X+024125Y+029848
X+028125Y+029848
X+032625Y+026848
X+032625Y+024848
X+036625Y+024848
X+036625Y+026848
X+039625Y+022348
X+039625Y+020348
X+039625Y+017848
X+039625Y+013848
X+036125Y+013848
X+036125Y+011848
X+034125Y+008848
X+034125Y+007848
X+031875Y+007598
X+024375Y+007598
X+019625Y+006848
X+015625Y+006848
X+019125Y+028348
X+019125Y+029848
X+017125Y+029741
X+017125Y+028954
X+015625Y+029348
X+011625Y+029348
X+010125Y+028954
X+010125Y+029741
X+008375Y+029348
X+006375Y+029348
X+005125Y+028848
X+005125Y+029848
T04
X+005125Y+020348
X+006125Y+020348
X+007125Y+020348
X+008125Y+020348
X+009125Y+020348
X+010125Y+020348
X+011125Y+020348
X+012125Y+020348
X+013125Y+020348
X+014125Y+020348
X+015125Y+020348
X+016125Y+020348
X+017125Y+020348
X+018125Y+020348
X+019125Y+020348
X+020125Y+020348
X+021125Y+020348
X+022125Y+020348
X+023125Y+020348
X+024125Y+020348
X+024125Y+026348
X+023125Y+026348
X+022125Y+026348
X+021125Y+026348
X+020125Y+026348
X+019125Y+026348
X+018125Y+026348
X+017125Y+026348
X+016125Y+026348
X+015125Y+026348
X+014125Y+026348
X+013125Y+026348
X+012125Y+026348
X+011125Y+026348
X+010125Y+026348
X+009125Y+026348
X+008125Y+026348
X+007125Y+026348
X+006125Y+026348
X+005125Y+026348
T05
X+033125Y+022348
X+037625Y+020348
X+038125Y+022348
X+037625Y+015348
T06
X+013625Y+017537
X+012625Y+017537
T07
X+008125Y+014757G85X+008125Y+015938
X+007535Y+013497G85X+006354Y+013497
X+005763Y+014757G85X+005763Y+015938
X+016125Y+015848
X+020625Y+016348
X+024625Y+017348
X+026625Y+017348
X+021625Y+006848
X+038002Y+008348
X+038003Y+009348
X+038002Y+027347
X+038003Y+028347
X+033625Y+029848
T08
X+035625Y+016348
X+035625Y+017348
X+035625Y+018348
X+035625Y+019348
T09
X+012900Y+007192
X+012900Y+008192
X+012900Y+009192
X+012900Y+010192
X+012900Y+011192
T10
X+020125Y+011348
X+015125Y+011348
T11
X+040002Y+029348
X+040003Y+025348
X+040002Y+010348
X+040003Y+006348
T12
X+005625Y+008848
T00
M30
